<svg width="1248" height="165" viewBox="0 0 1248 165" fill="none" xmlns="http://www.w3.org/2000/svg">
<path opacity="0.2" d="M116.377 143.077H117.377V142.077H116.377V143.077ZM116.377 163V164H117.377V163H116.377ZM0.0450001 163H-0.955V164H0.0450001V163ZM0.0450001 2.69999V1.69999H-0.955V2.69999H0.0450001ZM113.171 2.69999H114.171V1.69999H113.171V2.69999ZM113.171 22.623V23.623H114.171V22.623H113.171ZM22.945 22.623V21.623H21.945V22.623H22.945ZM22.945 71.858H21.945V72.858H22.945V71.858ZM103.324 71.858H104.324V70.858H103.324V71.858ZM103.324 91.323V92.323H104.324V91.323H103.324ZM22.945 91.323V90.323H21.945V91.323H22.945ZM22.945 143.077H21.945V144.077H22.945V143.077ZM115.377 143.077V163H117.377V143.077H115.377ZM116.377 162H0.0450001V164H116.377V162ZM1.045 163V2.69999H-0.955V163H1.045ZM0.0450001 3.69999H113.171V1.69999H0.0450001V3.69999ZM112.171 2.69999V22.623H114.171V2.69999H112.171ZM113.171 21.623H22.945V23.623H113.171V21.623ZM21.945 22.623V71.858H23.945V22.623H21.945ZM22.945 72.858H103.324V70.858H22.945V72.858ZM102.324 71.858V91.323H104.324V71.858H102.324ZM103.324 90.323H22.945V92.323H103.324V90.323ZM21.945 91.323V143.077H23.945V91.323H21.945ZM22.945 144.077H116.377V142.077H22.945V144.077ZM310.78 2.69999H311.78V1.69999H310.78V2.69999ZM310.78 163V164H311.78V163H310.78ZM292.002 163L291.223 163.627L291.523 164H292.002V163ZM195.822 43.462L196.601 42.8351L194.822 40.6239V43.462H195.822ZM195.822 163V164H196.822V163H195.822ZM172.922 163H171.922V164H172.922V163ZM172.922 2.69999V1.69999H171.922V2.69999H172.922ZM191.7 2.69999L192.479 2.07311L192.179 1.69999H191.7V2.69999ZM287.88 122.238L287.101 122.865L288.88 125.076V122.238H287.88ZM287.88 2.69999V1.69999H286.88V2.69999H287.88ZM309.78 2.69999V163H311.78V2.69999H309.78ZM310.78 162H292.002V164H310.78V162ZM292.781 162.373L196.601 42.8351L195.043 44.0889L291.223 163.627L292.781 162.373ZM194.822 43.462V163H196.822V43.462H194.822ZM195.822 162H172.922V164H195.822V162ZM173.922 163V2.69999H171.922V163H173.922ZM172.922 3.69999H191.7V1.69999H172.922V3.69999ZM190.921 3.32687L287.101 122.865L288.659 121.611L192.479 2.07311L190.921 3.32687ZM288.88 122.238V2.69999H286.88V122.238H288.88ZM287.88 3.69999H310.78V1.69999H287.88V3.69999ZM515.893 2.69999L516.808 3.10163L517.423 1.69999H515.893V2.69999ZM445.59 163V164H446.243L446.505 163.402L445.59 163ZM422.919 163L422.003 163.403L422.266 164H422.919V163ZM352.387 2.69999V1.69999H350.854L351.471 3.10273L352.387 2.69999ZM377.119 2.69999L378.034 2.29858L377.772 1.69999H377.119V2.69999ZM434.827 134.375L433.911 134.776L434.823 136.858L435.741 134.779L434.827 134.375ZM492.993 2.69999V1.69999H492.341L492.078 2.29592L492.993 2.69999ZM514.977 2.29835L444.674 162.598L446.505 163.402L516.808 3.10163L514.977 2.29835ZM445.59 162H422.919V164H445.59V162ZM423.834 162.597L353.302 2.29725L351.471 3.10273L422.003 163.403L423.834 162.597ZM352.387 3.69999H377.119V1.69999H352.387V3.69999ZM376.203 3.10139L433.911 134.776L435.742 133.974L378.034 2.29858L376.203 3.10139ZM435.741 134.779L493.907 3.10406L492.078 2.29592L433.912 133.971L435.741 134.779ZM492.993 3.69999H515.893V1.69999H492.993V3.69999ZM555.799 2.69999V1.69999H554.799V2.69999H555.799ZM578.699 2.69999H579.699V1.69999H578.699V2.69999ZM578.699 163V164H579.699V163H578.699ZM555.799 163H554.799V164H555.799V163ZM555.799 3.69999H578.699V1.69999H555.799V3.69999ZM577.699 2.69999V163H579.699V2.69999H577.699ZM578.699 162H555.799V164H578.699V162ZM556.799 163V2.69999H554.799V163H556.799ZM657.835 159.336L657.511 160.282L657.519 160.285L657.526 160.287L657.835 159.336ZM631.5 144.68L630.596 144.251L630.282 144.914L630.82 145.413L631.5 144.68ZM639.973 126.818L640.642 126.075L639.645 125.177L639.069 126.389L639.973 126.818ZM663.331 140.329L662.983 141.267L662.992 141.27L663.001 141.273L663.331 140.329ZM722.642 138.726L723.201 139.555L723.208 139.551L723.214 139.546L722.642 138.726ZM726.993 107.353L726.286 108.06L726.301 108.075L726.317 108.09L726.993 107.353ZM713.711 99.338L713.378 100.281L713.387 100.284L713.711 99.338ZM691.498 93.155L691.264 94.1273L691.266 94.1278L691.498 93.155ZM662.186 84.453L661.818 85.3828L661.824 85.3854L662.186 84.453ZM643.179 71.171L642.417 71.8186L642.426 71.8289L642.435 71.8389L643.179 71.171ZM642.034 23.539L641.202 22.9843L641.198 22.9908L641.193 22.9973L642.034 23.539ZM662.644 7.05099L662.234 6.13907L662.644 7.05099ZM748.29 15.066L749.214 15.4473L749.521 14.7052L748.862 14.2459L748.29 15.066ZM740.733 33.386L740.196 34.2297L741.203 34.8701L741.657 33.7673L740.733 33.386ZM719.207 23.768L718.92 24.7258L718.928 24.7285L718.937 24.731L719.207 23.768ZM667.453 27.432L666.868 26.6208L666.859 26.6274L667.453 27.432ZM663.331 59.263L662.639 59.985L662.647 59.9927L662.655 60.0002L663.331 59.263ZM676.842 67.278L676.494 68.2154L676.51 68.2213L676.526 68.2267L676.842 67.278ZM699.055 73.232L699.289 72.2597L699.279 72.2573L699.055 73.232ZM728.138 81.934L727.77 82.8638L728.138 81.934ZM746.916 95.216L746.162 95.8731L746.167 95.8786L746.172 95.8839L746.916 95.216ZM748.061 142.39L748.893 142.945L748.899 142.936L748.061 142.39ZM727.222 158.878L727.614 159.798L727.627 159.792L727.222 158.878ZM692.872 163.832C680.914 163.832 669.34 162.016 658.143 158.385L657.526 160.287C668.925 163.984 680.708 165.832 692.872 165.832V163.832ZM658.159 158.39C647.103 154.604 638.461 149.779 632.18 143.947L630.82 145.413C637.363 151.489 646.277 156.435 657.511 160.282L658.159 158.39ZM632.403 145.109L640.876 127.247L639.069 126.389L630.596 144.251L632.403 145.109ZM639.304 127.561C645.523 133.159 653.426 137.721 662.983 141.267L663.679 139.391C654.306 135.914 646.636 131.469 640.642 126.075L639.304 127.561ZM663.001 141.273C672.724 144.668 682.682 146.367 692.872 146.367V144.367C682.909 144.367 673.174 142.707 663.661 139.385L663.001 141.273ZM692.872 146.367C706.232 146.367 716.393 144.146 723.201 139.555L722.083 137.897C715.761 142.16 706.076 144.367 692.872 144.367V146.367ZM723.214 139.546C730.025 134.795 733.489 128.469 733.489 120.635H731.489C731.489 127.763 728.388 133.497 722.07 137.906L723.214 139.546ZM733.489 120.635C733.489 114.892 731.562 110.185 727.669 106.616L726.317 108.09C729.752 111.238 731.489 115.386 731.489 120.635H733.489ZM727.7 106.646C724.067 103.013 719.503 100.267 714.035 98.392L713.387 100.284C718.606 102.073 722.896 104.67 726.286 108.06L727.7 106.646ZM714.044 98.395C708.804 96.5456 701.359 94.475 691.73 92.1822L691.266 94.1278C700.872 96.415 708.237 98.4664 713.378 100.281L714.044 98.395ZM691.732 92.1827C679.694 89.2875 669.971 86.399 662.547 83.5206L661.824 85.3854C669.363 88.3084 679.181 91.2211 691.264 94.1273L691.732 92.1827ZM662.554 83.5232C655.372 80.6804 649.165 76.3436 643.923 70.5031L642.435 71.8389C647.88 77.9064 654.344 82.4243 661.818 85.3828L662.554 83.5232ZM643.941 70.5233C638.942 64.6428 636.393 56.7265 636.393 46.668H634.393C634.393 57.0668 637.034 65.4859 642.417 71.8186L643.941 70.5233ZM636.393 46.668C636.393 38.3015 638.556 30.7815 642.875 24.0807L641.193 22.9973C636.657 30.0364 634.393 37.9358 634.393 46.668H636.393ZM642.866 24.0937C647.321 17.4108 654.028 12.0246 663.054 7.96291L662.234 6.13907C652.94 10.3214 645.907 15.9271 641.202 22.9843L642.866 24.0937ZM663.054 7.96291C672.048 3.91562 683.272 1.868 696.765 1.868V-0.132C683.083 -0.132 671.56 1.94237 662.234 6.13907L663.054 7.96291ZM696.765 1.868C706.143 1.868 715.369 3.07795 724.445 5.49823L724.961 3.56576C715.717 1.10072 706.317 -0.132 696.765 -0.132V1.868ZM724.445 5.49823C733.513 7.91628 741.264 11.3838 747.718 15.8861L748.862 14.2459C742.186 9.58819 734.213 6.03304 724.961 3.56576L724.445 5.49823ZM747.366 14.6847L739.809 33.0047L741.657 33.7673L749.214 15.4473L747.366 14.6847ZM741.27 32.5423C734.47 28.2152 727.205 24.9689 719.477 22.805L718.937 24.731C726.476 26.8417 733.561 30.0074 740.196 34.2297L741.27 32.5423ZM719.494 22.8102C711.776 20.4946 704.198 19.333 696.765 19.333V21.333C703.988 21.333 711.371 22.4613 718.92 24.7258L719.494 22.8102ZM696.765 19.333C683.695 19.333 673.678 21.7113 666.868 26.6208L668.038 28.2432C674.357 23.6873 683.882 21.333 696.765 21.333V19.333ZM666.859 26.6274C660.211 31.5342 656.835 37.9304 656.835 45.752H658.835C658.835 38.6123 661.871 32.7951 668.047 28.2366L666.859 26.6274ZM656.835 45.752C656.835 51.4955 658.761 56.2683 662.639 59.985L664.023 58.541C660.573 55.235 658.835 51.0005 658.835 45.752H656.835ZM662.655 60.0002C666.427 63.458 671.047 66.1923 676.494 68.2154L677.19 66.3406C671.95 64.3943 667.563 61.7854 664.007 58.5258L662.655 60.0002ZM676.526 68.2267C682.065 70.0732 689.505 72.0661 698.831 74.2066L699.279 72.2573C689.98 70.1232 682.611 68.1468 677.158 66.3293L676.526 68.2267ZM698.821 74.2043C710.859 77.0994 720.503 79.9873 727.77 82.8638L728.506 81.0042C721.117 78.0794 711.372 75.1659 699.289 72.2597L698.821 74.2043ZM727.77 82.8638C734.949 85.7056 741.076 90.0392 746.162 95.8731L747.67 94.5589C742.374 88.4848 735.983 83.9638 728.506 81.0042L727.77 82.8638ZM746.172 95.8839C751.311 101.61 753.931 109.365 753.931 119.261H755.931C755.931 109.005 753.208 100.73 747.66 94.5481L746.172 95.8839ZM753.931 119.261C753.931 127.464 751.697 134.984 747.223 141.844L748.899 142.936C753.585 135.751 755.931 127.851 755.931 119.261H753.931ZM747.229 141.835C742.776 148.514 735.997 153.9 726.817 157.964L727.627 159.792C737.073 155.612 744.185 150.006 748.893 142.945L747.229 141.835ZM726.83 157.958C717.676 161.86 706.368 163.832 692.872 163.832V165.832C706.551 165.832 718.143 163.835 727.614 159.798L726.83 157.958ZM807.851 2.69999V1.69999H806.851V2.69999H807.851ZM830.751 2.69999H831.751V1.69999H830.751V2.69999ZM830.751 163V164H831.751V163H830.751ZM807.851 163H806.851V164H807.851V163ZM807.851 3.69999H830.751V1.69999H807.851V3.69999ZM829.751 2.69999V163H831.751V2.69999H829.751ZM830.751 162H807.851V164H830.751V162ZM808.851 163V2.69999H806.851V163H808.851ZM926.833 154.298L926.349 155.173L926.357 155.177L926.833 154.298ZM896.147 124.757L895.284 125.262L895.289 125.27L896.147 124.757ZM896.147 40.943L895.289 40.43L895.284 40.4378L896.147 40.943ZM926.833 11.631L927.309 12.5105L927.317 12.5061L926.833 11.631ZM1014.08 11.631L1013.6 12.5062L1013.61 12.5105L1014.08 11.631ZM1044.54 40.943L1043.68 41.4482L1043.68 41.4528L1044.54 40.943ZM1044.54 124.986L1045.4 125.496L1045.4 125.491L1044.54 124.986ZM1014.08 154.298L1014.56 155.178L1014.57 155.173L1014.08 154.298ZM1002.17 136.436L1001.68 135.565L1001.68 135.569L1002.17 136.436ZM1024.39 114.452L1023.52 113.95L1023.52 113.954L1024.39 114.452ZM1024.39 51.477L1023.52 51.9686L1023.52 51.977L1023.53 51.9853L1024.39 51.477ZM1002.17 29.264L1001.68 30.1314L1001.68 30.1348L1002.17 29.264ZM938.512 29.264L938.026 28.3898L938.02 28.3932L938.512 29.264ZM916.07 51.477L915.205 50.9749L915.203 50.9793L916.07 51.477ZM916.07 114.452L915.199 114.944L915.204 114.952L915.209 114.96L916.07 114.452ZM938.512 136.436L938.02 137.307L938.026 137.31L938.512 136.436ZM970.572 163.832C954.539 163.832 940.126 160.355 927.309 153.419L926.357 155.177C939.494 162.287 954.24 165.832 970.572 165.832V163.832ZM927.317 153.423C914.492 146.332 904.394 136.608 897.005 124.244L895.289 125.27C902.862 137.943 913.221 147.914 926.349 155.173L927.317 153.423ZM897.01 124.252C889.777 111.896 886.155 98.1034 886.155 82.85H884.155C884.155 98.4353 887.861 112.581 895.284 125.262L897.01 124.252ZM886.155 82.85C886.155 67.5966 889.777 53.8039 897.01 41.4482L895.284 40.4378C887.861 53.1194 884.155 67.2647 884.155 82.85H886.155ZM897.005 41.4559C904.393 29.0935 914.488 19.4486 927.309 12.5105L926.357 10.7515C913.224 17.8587 902.863 27.7551 895.289 40.43L897.005 41.4559ZM927.317 12.5061C940.132 5.42004 954.543 1.868 970.572 1.868V-0.132C954.236 -0.132 939.487 3.49129 926.349 10.7559L927.317 12.5061ZM970.572 1.868C986.447 1.868 1000.78 5.41927 1013.6 12.5061L1014.57 10.7559C1001.43 3.49207 986.757 -0.132 970.572 -0.132V1.868ZM1013.61 12.5105C1026.42 19.4477 1036.44 29.0901 1043.68 41.4482L1045.4 40.4378C1037.98 27.7585 1027.69 17.8596 1014.56 10.7515L1013.61 12.5105ZM1043.68 41.4528C1050.91 53.6517 1054.53 67.4419 1054.53 82.85H1056.53C1056.53 67.1141 1052.83 52.9663 1045.4 40.4332L1043.68 41.4528ZM1054.53 82.85C1054.53 98.2579 1050.91 112.127 1043.68 124.481L1045.4 125.491C1052.83 112.808 1056.53 98.586 1056.53 82.85H1054.53ZM1043.68 124.476C1036.44 136.684 1026.42 146.331 1013.6 153.423L1014.57 155.173C1027.69 147.915 1037.98 138.02 1045.4 125.496L1043.68 124.476ZM1013.61 153.419C1000.79 160.355 986.451 163.832 970.572 163.832V165.832C986.753 165.832 1001.42 162.286 1014.56 155.177L1013.61 153.419ZM970.572 145.451C982.485 145.451 993.193 142.742 1002.67 137.303L1001.68 135.569C992.529 140.817 982.17 143.451 970.572 143.451V145.451ZM1002.67 137.307C1012.29 131.876 1019.82 124.42 1025.25 114.95L1023.52 113.954C1018.27 123.109 1010.99 130.309 1001.68 135.565L1002.67 137.307ZM1025.25 114.954C1030.84 105.327 1033.63 94.618 1033.63 82.85H1031.63C1031.63 94.2873 1028.92 104.646 1023.52 113.95L1025.25 114.954ZM1033.63 82.85C1033.63 71.0821 1030.84 60.4466 1025.25 50.9687L1023.53 51.9853C1028.92 61.1327 1031.63 71.4126 1031.63 82.85H1033.63ZM1025.26 50.9854C1019.82 41.3615 1012.29 33.826 1002.67 28.3932L1001.68 30.1348C1010.99 35.3886 1018.26 42.6618 1023.52 51.9686L1025.26 50.9854ZM1002.67 28.3966C993.193 22.9583 982.485 20.249 970.572 20.249V22.249C982.17 22.249 992.529 24.883 1001.68 30.1314L1002.67 28.3966ZM970.572 20.249C958.659 20.249 947.803 22.9583 938.026 28.3898L938.998 30.1381C948.457 24.883 958.975 22.249 970.572 22.249V20.249ZM938.02 28.3932C928.399 33.8246 920.79 41.3567 915.205 50.9749L916.935 51.9791C922.342 42.6666 929.694 35.39 939.004 30.1348L938.02 28.3932ZM915.203 50.9793C909.765 60.4556 907.055 71.0872 907.055 82.85H909.055C909.055 71.4074 911.688 61.1237 916.937 51.9747L915.203 50.9793ZM907.055 82.85C907.055 94.6129 909.766 105.318 915.199 114.944L916.941 113.96C911.688 104.655 909.055 94.2924 909.055 82.85H907.055ZM915.209 114.96C920.795 124.425 928.403 131.878 938.02 137.307L939.004 135.565C929.69 130.308 922.338 123.104 916.931 113.944L915.209 114.96ZM938.026 137.31C947.803 142.742 958.659 145.451 970.572 145.451V143.451C958.975 143.451 948.457 140.817 938.998 135.562L938.026 137.31ZM1247.86 2.69999H1248.86V1.69999H1247.86V2.69999ZM1247.86 163V164H1248.86V163H1247.86ZM1229.08 163L1228.3 163.627L1228.6 164H1229.08V163ZM1132.9 43.462L1133.68 42.8351L1131.9 40.6239V43.462H1132.9ZM1132.9 163V164H1133.9V163H1132.9ZM1110 163H1109V164H1110V163ZM1110 2.69999V1.69999H1109V2.69999H1110ZM1128.78 2.69999L1129.55 2.07311L1129.25 1.69999H1128.78V2.69999ZM1224.96 122.238L1224.18 122.865L1225.96 125.076V122.238H1224.96ZM1224.96 2.69999V1.69999H1223.96V2.69999H1224.96ZM1246.86 2.69999V163H1248.86V2.69999H1246.86ZM1247.86 162H1229.08V164H1247.86V162ZM1229.86 162.373L1133.68 42.8351L1132.12 44.0889L1228.3 163.627L1229.86 162.373ZM1131.9 43.462V163H1133.9V43.462H1131.9ZM1132.9 162H1110V164H1132.9V162ZM1111 163V2.69999H1109V163H1111ZM1110 3.69999H1128.78V1.69999H1110V3.69999ZM1128 3.32687L1224.18 122.865L1225.73 121.611L1129.55 2.07311L1128 3.32687ZM1225.96 122.238V2.69999H1223.96V122.238H1225.96ZM1224.96 3.69999H1247.86V1.69999H1224.96V3.69999Z" fill="black"/>
</svg>
