<svg width="92" height="90" viewBox="0 0 92 90" fill="none" xmlns="http://www.w3.org/2000/svg">
<path d="M1.00093 44.903C1.00093 38.275 6.37393 32.901 13.0029 32.901C18.1989 32.901 22.6229 36.203 24.2929 40.822V40.823C27.8809 45.838 33.1689 49.553 39.3149 51.128L39.4609 51.165C39.4039 51.208 39.3479 51.251 39.2929 51.295C36.7739 53.275 35.1529 56.349 35.1529 59.794C35.1529 62.211 35.9509 64.446 37.2969 66.248L37.2349 66.213C37.2159 66.207 37.1969 66.2 37.1789 66.193C37.0979 66.165 37.0159 66.136 36.9349 66.107C32.1189 64.375 27.9479 61.293 24.8769 57.318L24.8959 90H0.856934L1.00493 44.992L1.00093 44.903ZM67.1039 12.002C67.1039 18.63 72.4769 24.004 79.1059 24.004C85.7349 24.004 91.1079 18.631 91.1079 12.002C91.1079 5.373 85.7339 0 79.1059 0C72.4779 0 67.1039 5.373 67.1039 12.002ZM13.0029 0C19.6309 0 25.0049 5.373 25.0049 12.002C25.0049 18.631 19.6319 24.004 13.0029 24.004C6.37393 24.004 1.00093 18.63 1.00093 12.002C1.00093 5.374 6.37393 0 13.0029 0ZM50.2409 51.552C46.4759 52.074 43.5769 55.306 43.5769 59.215C43.5769 63.488 47.0409 66.951 51.3129 66.951C52.0569 66.951 52.7769 66.846 53.4579 66.65L53.8149 66.505C59.1479 64.882 63.7709 61.629 67.1029 57.326V57.483V89.983H91.1419L91.1059 44.903C91.1059 38.275 85.7329 32.901 79.1039 32.901C74.0379 32.901 69.7059 36.039 67.9439 40.477L67.8799 40.557C63.9019 46.252 57.7509 50.318 50.6299 51.55L50.2409 51.552Z" fill="#F36C25"/>
</svg>

