<svg width="118" height="108" viewBox="0 0 118 108" fill="none" xmlns="http://www.w3.org/2000/svg">
<path d="M110.953 57.2647C110.19 57.391 109.417 57.6661 108.628 58.0895C108.841 56.5792 108.979 55.0296 109.04 53.4507C110.034 52.8102 111.081 51.8046 112.177 50.4292C114.048 48.08 115.813 44.9534 116.898 42.0651C118 39.1332 118.272 36.7935 117.73 34.9123C117.215 33.1239 115.955 31.8062 114.087 31.1013C112.22 30.3966 110.406 30.5544 108.841 31.5581C107.933 32.1409 107.12 32.9941 106.388 34.1334C106.018 32.9038 105.663 31.8563 105.364 31.0292C107.398 27.6638 106.169 20.1259 104.738 15.9747C103.718 13.0135 102.436 11.0387 100.821 9.93788C99.2848 8.89136 97.4757 8.68326 95.5894 9.33621C93.7028 9.98915 92.4074 11.2717 91.8432 13.0451C91.2498 14.9106 91.4574 17.2568 92.4777 20.2181C94.0425 24.7589 98.2915 32.3418 102.287 32.6973C102.591 33.5657 102.941 34.6367 103.299 35.8826C101.894 34.3272 100.501 33.3509 99.0753 32.9195C97.2969 32.3815 95.5089 32.7262 93.9042 33.9149C92.2993 35.104 91.4464 36.7161 91.4378 38.5775C91.4286 40.5354 92.3277 42.7118 94.1856 45.2312C97.1134 49.2009 102.091 53.5563 105.541 54.2067C105.41 56.4552 105.107 58.6286 104.638 60.6897C103.924 57.8396 102.878 55.8611 101.443 54.6531C100.021 53.4558 98.2431 53.065 96.2999 53.5226C94.3569 53.9803 92.9384 55.1245 92.1977 56.8312C91.4185 58.6265 91.3874 60.9819 92.1025 64.0316C92.9352 67.5816 94.9261 72.3222 97.222 75.0962C94.7187 77.8403 91.6374 80.2364 88.0321 82.2444V78.1232C88.0321 75.896 86.2241 74.0843 84.002 74.0843H65.2541V56.2062C66.3343 55.3798 67.2532 54.3353 67.9452 53.117L72.0117 55.2597C72.6835 55.6135 73.41 55.7883 74.1331 55.7883C75.0725 55.7883 76.0056 55.4934 76.803 54.9128C78.2144 53.8852 78.9079 52.1762 78.6131 50.453L76.128 35.9325L77.8586 34.242C78.5421 33.5743 78.5562 32.4776 77.8899 31.7926C77.2234 31.1073 76.1292 31.0932 75.4459 31.7612L73.0645 34.0872C72.657 34.4852 72.471 35.0587 72.5674 35.6206L75.2062 51.0387C75.3099 51.6443 74.9368 51.9896 74.7715 52.1097C74.6063 52.2301 74.1631 52.479 73.6208 52.1931L59.8046 44.9134C59.3008 44.6483 58.6996 44.6483 58.196 44.9134L44.3798 52.1931C43.8373 52.4788 43.3946 52.2301 43.2291 52.1097C43.0639 51.9894 42.6908 51.6443 42.7945 51.0387L45.4333 35.6204C45.5294 35.0585 45.3436 34.485 44.9361 34.087L33.7587 23.1678C33.3197 22.7388 33.419 22.24 33.4822 22.0452C33.5453 21.8505 33.7576 21.3884 34.3644 21.2999L49.8113 19.0505C50.3744 18.9685 50.8611 18.6142 51.1128 18.1028L58.0209 4.07475C58.2921 3.52389 58.7964 3.4643 59.0005 3.4643C59.2047 3.4643 59.709 3.52389 59.9802 4.07475L66.8883 18.1028C67.14 18.614 67.6267 18.9685 68.1898 19.0505L83.6367 21.2999C84.2433 21.3884 84.4558 21.8505 84.5187 22.0452C84.5818 22.24 84.6814 22.7388 84.2424 23.1678L81.2841 26.0576C80.6006 26.7254 80.5865 27.8222 81.2528 28.507C81.9191 29.1921 83.0135 29.206 83.6969 28.5385L86.6553 25.6486C87.9044 24.4282 88.3455 22.6372 87.8064 20.9745C87.2674 19.3117 85.8602 18.1227 84.1338 17.8714L69.5861 15.753L63.0804 2.54158C62.3084 0.973763 60.7451 0 59.0005 0C57.2562 0 55.6927 0.973994 54.9207 2.54158L48.415 15.753L33.8673 17.8714C32.1409 18.1227 30.7337 19.312 30.1944 20.9747C29.6554 22.6374 30.0967 24.4284 31.3458 25.6486L41.8726 35.9322L39.3875 50.453C39.0928 52.176 39.7862 53.8849 41.1976 54.9125C42.6089 55.9401 44.4448 56.0731 45.9889 55.2594L50.0556 53.1167C50.7477 54.3319 51.667 55.3747 52.7465 56.2009V74.0843H46.486C45.5314 74.0843 44.7575 74.8599 44.7575 75.8166C44.7575 76.7732 45.5314 77.5488 46.486 77.5488H84.0024C84.3186 77.5488 84.5756 77.8066 84.5756 78.1232V93.4685H33.4248V78.1232C33.4248 77.8063 33.682 77.5488 33.9982 77.5488H38.3281C39.2827 77.5488 40.0566 76.7732 40.0566 75.8166C40.0566 74.8599 39.2827 74.0843 38.3281 74.0843H33.9982C31.7758 74.0843 29.9679 75.8962 29.9679 78.1232V82.2444C26.3628 80.2366 23.2815 77.8405 20.7782 75.0964C23.0743 72.3215 25.0662 67.5765 25.8975 64.0316C26.6128 60.9817 26.5817 58.6265 25.8025 56.8309C25.0618 55.1241 23.6431 53.9801 21.7003 53.5223C19.757 53.0645 17.9788 53.4556 16.5568 54.6529C15.1229 55.8604 14.0766 57.8384 13.3622 60.6874C12.8939 58.6263 12.5903 56.4538 12.459 54.2039C13.8703 53.9413 15.5416 53.0879 17.4545 51.6487C19.7425 49.9275 22.1202 47.5285 23.8145 45.2312C25.6728 42.7118 26.5716 40.5354 26.5623 38.5775C26.5538 36.7161 25.7009 35.104 24.0959 33.9149C22.491 32.7262 20.7031 32.3815 18.9248 32.9195C17.499 33.3507 16.1065 34.3268 14.7021 35.8816C15.0602 34.6344 15.4103 33.5604 15.7129 32.6971C19.7082 32.3418 23.9579 24.7584 25.5225 20.2178C26.543 17.2566 26.7504 14.9104 26.157 13.0449C25.5928 11.2715 24.2974 9.98916 22.4108 9.33598C20.5242 8.68326 18.7156 8.89113 17.1795 9.93765C15.564 11.0384 14.2826 13.013 13.2619 15.9745C11.8314 20.1259 10.6022 27.664 12.6362 31.0292C12.3389 31.8508 11.984 32.8961 11.612 34.1327C10.8801 32.9936 10.0668 32.1404 9.15877 31.5579C7.59439 30.5541 5.78043 30.3961 3.91276 31.1011C2.04487 31.8057 0.785164 33.1236 0.270081 34.912C-0.271965 36.7933 0.000210335 39.1328 1.10182 42.0647C2.18683 44.9529 3.95194 48.0795 5.82306 50.4287C6.91983 51.8058 7.96797 52.8121 8.96334 53.4523C9.02372 55.0315 9.16107 56.5808 9.37448 58.0902C8.58423 57.6664 7.81057 57.3908 7.04705 57.2642C5.21533 56.9601 3.48572 57.5329 2.04717 58.9194C0.6084 60.3056 -0.0299801 62.0148 0.200943 63.8616C0.44385 65.8045 1.61506 67.8465 3.78186 70.1049C5.91617 72.3294 8.76906 74.5044 11.4134 75.9228C13.4368 77.0081 15.1383 77.5511 16.5057 77.5511C17.086 77.5511 17.6036 77.4495 18.0624 77.2539C21.2288 80.7745 25.2293 83.766 29.9681 86.1626V93.4683H22.3283C20.1059 93.4683 18.298 95.2803 18.298 97.5075V103.354C18.298 105.582 20.1059 107.394 22.3283 107.394H72.8974C73.852 107.394 74.6259 106.618 74.6259 105.661C74.6259 104.705 73.852 103.929 72.8974 103.929H22.3283C22.0121 103.929 21.7549 103.671 21.7549 103.354V97.5075C21.7549 97.1906 22.0121 96.9328 22.3283 96.9328H95.6717C95.9879 96.9328 96.245 97.1906 96.245 97.5075V103.354C96.245 103.671 95.9879 103.929 95.6717 103.929H81.0546C80.1 103.929 79.3261 104.705 79.3261 105.661C79.3261 106.618 80.1 107.394 81.0546 107.394H95.6717C97.894 107.394 99.702 105.582 99.702 103.354V97.5075C99.702 95.2803 97.894 93.4683 95.6717 93.4683H88.0318V86.1628C92.7706 83.7663 96.7712 80.7747 99.9377 77.2541C100.396 77.45 100.914 77.5514 101.495 77.5514C102.862 77.5514 104.563 77.0081 106.587 75.923C109.231 74.5047 112.084 72.3296 114.218 70.1052C116.385 67.847 117.556 65.8048 117.799 63.8619C118.03 62.015 117.391 60.3059 115.953 58.9196C114.514 57.5333 112.785 56.9612 110.953 57.2647ZM58.9999 48.4036L64.8835 51.5037C63.6623 53.5662 61.4504 54.852 58.9999 54.852C56.5597 54.852 54.342 53.5625 53.1189 51.5023L58.9999 48.4036ZM56.2027 57.9294C57.0985 58.1816 58.0374 58.3165 58.9999 58.3165C59.9636 58.3165 60.9023 58.183 61.797 57.9322V74.0841H56.2027V57.9294ZM16.6356 61.8499C17.9608 56.2004 20.1029 56.7055 20.9089 56.8949C22.0455 57.1628 22.4269 57.74 22.6323 58.2131C22.9517 58.9492 23.1937 60.4184 22.532 63.2389C21.9141 65.8734 20.7275 68.7679 19.4613 70.9267C19.244 70.3116 18.9684 69.6582 18.6328 68.9658C17.964 67.5862 17.1005 66.1448 16.1319 64.7679C16.2552 63.7415 16.4225 62.7599 16.6356 61.8499ZM16.1634 39.5637C17.882 37.234 19.1564 36.4683 19.9232 36.2364C20.4159 36.0874 21.102 36.0054 22.0407 36.7011C22.9796 37.3966 23.1026 38.0779 23.1052 38.5937C23.1089 39.3963 22.7526 40.8422 21.0342 43.1719C19.2138 45.6401 17.0284 47.6652 15.186 49.0138C15.228 48.3648 15.2319 47.658 15.1962 46.8921C15.125 45.3597 14.8989 43.6932 14.5511 42.0448C15.069 41.1496 15.6101 40.3139 16.1634 39.5637ZM16.5292 17.1058C17.4729 14.3672 18.4604 13.2544 19.1226 12.803C19.5485 12.5129 20.1783 12.2293 21.2818 12.6111C22.3854 12.9931 22.7065 13.6061 22.8627 14.0976C23.1061 14.8624 23.1981 16.3486 22.2541 19.0872C20.3797 24.5268 16.8143 28.8727 15.5555 29.2288C14.7846 28.1701 14.6548 22.5451 16.5292 17.1058ZM4.33704 40.8442C3.3184 38.1329 3.36933 36.6443 3.59127 35.8733C3.73416 35.3777 4.0379 34.7561 5.13075 34.3439C5.53683 34.1905 5.87999 34.1311 6.17313 34.1311C6.66886 34.1311 7.02193 34.3014 7.29433 34.476C7.96889 34.9088 8.98661 35.9939 10.0053 38.7055C12.0209 44.0699 12.0534 49.6723 11.3205 50.7828C11.291 50.7773 11.2617 50.7747 11.2325 50.7706C9.89717 50.3042 6.32017 46.123 4.33704 40.8442ZM16.6015 74.0901C15.3119 74.2979 10.2535 71.8524 6.27339 67.7042C4.26975 65.6158 3.73024 64.2279 3.63091 63.4316C3.56684 62.9197 3.60141 62.2284 4.44306 61.4173C5.08397 60.7997 5.63731 60.6479 6.08925 60.6479C6.23052 60.6479 6.36211 60.6627 6.48311 60.6828C7.27336 60.8138 8.63585 61.4083 10.6395 63.4967C14.6193 67.6447 16.858 72.8045 16.6015 74.0901ZM107.994 38.7052C109.013 35.9937 110.031 34.9086 110.705 34.4757C110.978 34.3011 111.331 34.1309 111.827 34.1309C112.12 34.1309 112.463 34.1905 112.869 34.3436C113.962 34.7559 114.266 35.3777 114.409 35.8731C114.631 36.6441 114.682 38.1327 113.663 40.844C111.64 46.2295 107.956 50.4754 106.688 50.7964C105.946 49.7171 105.971 44.0907 107.994 38.7052ZM95.7454 19.0872C94.8017 16.3486 94.8936 14.8624 95.1367 14.0976C95.293 13.6061 95.614 12.9931 96.7177 12.6111C97.0998 12.4788 97.425 12.4263 97.7048 12.4263C98.233 12.4263 98.5985 12.6134 98.8769 12.8028C99.5393 13.2541 100.527 14.3669 101.47 17.1055C103.345 22.5448 103.215 28.1698 102.444 29.2286C101.185 28.8727 97.6198 24.5268 95.7454 19.0872ZM96.9655 43.1719C95.2469 40.8422 94.8909 39.3963 94.8945 38.5937C94.8968 38.0779 95.0201 37.3966 95.959 36.7011C96.8982 36.0057 97.584 36.0874 98.0765 36.2364C98.8433 36.4683 100.118 37.2337 101.836 39.5635C102.391 40.3155 102.931 41.1516 103.448 42.0457C103.101 43.6939 102.875 45.3599 102.804 46.8919C102.768 47.6566 102.772 48.3629 102.813 49.011C100.886 47.5945 98.6727 45.4867 96.9655 43.1719ZM95.3677 58.2131C95.573 57.74 95.9542 57.1628 97.0911 56.8952C97.897 56.7055 100.039 56.2004 101.364 61.8499C101.577 62.7592 101.745 63.7411 101.868 64.7679C100.9 66.1448 100.036 67.5862 99.3671 68.9658C99.0313 69.6585 98.7557 70.3123 98.5381 70.9276C97.2724 68.7702 96.0865 65.8773 95.4677 63.2389C94.8063 60.4184 95.0483 58.9489 95.3677 58.2131ZM114.369 63.4313C114.269 64.2277 113.73 65.6156 111.726 67.704C107.746 71.8524 102.689 74.2986 101.398 74.0898C101.142 72.8045 103.381 67.6447 107.36 63.4965C109.364 61.408 110.726 60.8135 111.517 60.6826C112.024 60.5985 112.715 60.6059 113.557 61.4171C114.398 62.2282 114.433 62.9195 114.369 63.4313Z" fill="#F36C25"/>
<path d="M68.3421 87.0214C69.2967 87.0214 70.0706 86.2458 70.0706 85.2891C70.0706 84.3325 69.2967 83.5569 68.3421 83.5569H49.6577C48.7031 83.5569 47.9292 84.3325 47.9292 85.2891C47.9292 86.2458 48.7031 87.0214 49.6577 87.0214H68.3421Z" fill="#F36C25"/>
</svg>
