<svg width="100" height="88" viewBox="0 0 100 88" fill="none" xmlns="http://www.w3.org/2000/svg">
<g clip-path="url(#clip0_3_710)">
<path d="M16.0751 27.8609C19.6401 27.8609 22.5301 24.9709 22.5301 21.4059C22.5301 17.8409 19.6401 14.9509 16.0751 14.9509C12.5101 14.9509 9.62012 17.8409 9.62012 21.4059C9.62012 24.9709 12.5101 27.8609 16.0751 27.8609Z" fill="#F36C25"/>
<path d="M33.111 27.8609C36.676 27.8609 39.566 24.9709 39.566 21.4059C39.566 17.8409 36.676 14.9509 33.111 14.9509C29.546 14.9509 26.656 17.8409 26.656 21.4059C26.656 24.9709 29.546 27.8609 33.111 27.8609Z" fill="#F36C25"/>
<path d="M24.3419 12.805C27.9064 12.805 30.7959 9.91542 30.7959 6.35097C30.7959 2.78653 27.9064 -0.103027 24.3419 -0.103027C20.7775 -0.103027 17.8879 2.78653 17.8879 6.35097C17.8879 9.91542 20.7775 12.805 24.3419 12.805Z" fill="#F36C25"/>
<path d="M41.7699 12.805C45.3344 12.805 48.2239 9.91542 48.2239 6.35097C48.2239 2.78653 45.3344 -0.103027 41.7699 -0.103027C38.2055 -0.103027 35.3159 2.78653 35.3159 6.35097C35.3159 9.91542 38.2055 12.805 41.7699 12.805Z" fill="#F36C25"/>
<path d="M58.2999 12.805C61.8644 12.805 64.7539 9.91542 64.7539 6.35097C64.7539 2.78653 61.8644 -0.103027 58.2999 -0.103027C54.7355 -0.103027 51.8459 2.78653 51.8459 6.35097C51.8459 9.91542 54.7355 12.805 58.2999 12.805Z" fill="#F36C25"/>
<path d="M74.7489 12.805C78.3134 12.805 81.2029 9.91542 81.2029 6.35097C81.2029 2.78653 78.3134 -0.103027 74.7489 -0.103027C71.1845 -0.103027 68.2949 2.78653 68.2949 6.35097C68.2949 9.91542 71.1845 12.805 74.7489 12.805Z" fill="#F36C25"/>
<path d="M66.7841 27.8609C70.3491 27.8609 73.2391 24.9709 73.2391 21.4059C73.2391 17.8409 70.3491 14.9509 66.7841 14.9509C63.2191 14.9509 60.3291 17.8409 60.3291 21.4059C60.3291 24.9709 63.2191 27.8609 66.7841 27.8609Z" fill="#F36C25"/>
<path d="M50.037 14.9509C53.597 14.9509 56.49 17.8389 56.49 21.4069C56.49 24.9689 53.599 27.8609 50.037 27.8609C46.467 27.8609 43.582 24.9709 43.582 21.4069C43.582 17.8399 46.466 14.9509 50.037 14.9509Z" fill="#F36C25"/>
<path d="M83.7538 14.9509C87.3178 14.9509 90.2098 17.8389 90.2098 21.4069C90.2098 24.9689 87.3178 27.8609 83.7538 27.8609C80.1838 27.8609 77.2988 24.9709 77.2988 21.4069C77.2988 17.8399 80.1858 14.9509 83.7538 14.9509Z" fill="#F36C25"/>
<path d="M7.67517 88.266H24.4552V60.091H30.7422L30.7292 37.35C30.7292 33.37 27.5102 30.145 23.5412 30.145H8.54217C4.57117 30.145 1.35017 33.37 1.35017 37.35L1.32617 60.091H7.67517V88.266Z" fill="#F36C25"/>
<path d="M41.6771 88.266H58.4551V60.091H64.7421L64.7291 37.35C64.7291 33.37 61.5091 30.145 57.5411 30.145H42.5441C38.5731 30.145 35.3521 33.37 35.3521 37.35L35.3291 60.091H41.6781V88.266H41.6771Z" fill="#F36C25"/>
<path d="M75.3949 88.266H92.1749V60.091H98.4619L98.4489 37.35C98.4489 33.37 95.2289 30.145 91.2609 30.145H76.2619C72.2899 30.145 69.0699 33.37 69.0699 37.35L69.0469 60.091H75.3959V88.266H75.3949Z" fill="#F36C25"/>
</g>
<defs>
<clipPath id="clip0_3_710">
<rect width="100" height="88" fill="white"/>
</clipPath>
</defs>
</svg>
