<svg width="108" height="108" viewBox="0 0 108 108" fill="none" xmlns="http://www.w3.org/2000/svg">
<path d="M93.6 5.4C93.6 3.96783 93.0311 2.59432 92.0184 1.58162C91.0057 0.568927 89.6322 0 88.2 0H19.8C18.3679 0 16.9944 0.568927 15.9817 1.58162C14.969 2.59432 14.4 3.96783 14.4 5.4V25.2H10.8V28.8H14.4V57.6H10.8V61.2H14.4V102.6C14.4 104.032 14.969 105.406 15.9817 106.418C16.9944 107.431 18.3679 108 19.8 108H88.2C89.6322 108 91.0057 107.431 92.0184 106.418C93.0311 105.406 93.6 104.032 93.6 102.6V61.2H97.2V57.6H93.6V28.8H97.2V25.2H93.6V5.4ZM75.6 3.6H79.2V10.26L78.8976 9.8064C78.7235 9.57358 78.4975 9.38457 78.2375 9.25438C77.9775 9.12418 77.6908 9.0564 77.4 9.0564C77.1093 9.0564 76.8226 9.12418 76.5626 9.25438C76.3026 9.38457 76.0766 9.57358 75.9024 9.8064L75.6 10.26V3.6ZM90 57.6H75.6V61.2H90V102.6C90 103.077 89.8104 103.535 89.4728 103.873C89.1353 104.21 88.6774 104.4 88.2 104.4H19.8C19.3227 104.4 18.8648 104.21 18.5273 103.873C18.1897 103.535 18 103.077 18 102.6V61.2H32.4V57.6H18V28.8H31.6548L38.3274 35.4726L40.8726 32.9274L33.6726 25.7274C33.3352 25.3898 32.8774 25.2001 32.4 25.2H18V5.4C18 4.92261 18.1897 4.46477 18.5273 4.12721C18.8648 3.78964 19.3227 3.6 19.8 3.6H72V16.2C72 16.5863 72.1242 16.9625 72.3543 17.2728C72.5845 17.5831 72.9084 17.8111 73.2782 17.9231C73.6479 18.0351 74.0439 18.0252 74.4076 17.8948C74.7712 17.7644 75.0833 17.5204 75.2976 17.199L77.4 14.04L79.5024 17.1936C79.7165 17.5147 80.0281 17.7584 80.3913 17.8889C80.7544 18.0194 81.1499 18.0298 81.5193 17.9185C81.8888 17.8072 82.2127 17.58 82.4433 17.2706C82.6739 16.9612 82.799 16.5859 82.8 16.2V3.6H88.2C88.6774 3.6 89.1353 3.78964 89.4728 4.12721C89.8104 4.46477 90 4.92261 90 5.4V25.2H75.6C75.1227 25.2001 74.6649 25.3898 74.3274 25.7274L67.1274 32.9274L69.6726 35.4726L76.3452 28.8H90V57.6Z" fill="#F36C25"/>
<path d="M38.5974 66.5999H45C45.3345 66.6001 45.6624 66.5071 45.947 66.3312C46.2315 66.1554 46.4615 65.9038 46.611 65.6045L47.547 63.7326L48.6918 67.1688C47.4783 68.4854 46.8032 70.2094 46.8 71.9999C46.8 75.7079 49.6044 82.7999 54 82.7999C58.3956 82.7999 61.2 75.7079 61.2 71.9999C61.1952 70.2101 60.5188 68.4873 59.3046 67.1723L60.4512 63.7343L61.3872 65.6082C61.5373 65.907 61.7678 66.1581 62.0527 66.3332C62.3375 66.5084 62.6656 66.6008 63 66.5999H69.4026C69.9838 66.5998 70.5564 66.4589 71.0714 66.1893C71.5863 65.9198 72.0283 65.5295 72.3596 65.0519C72.691 64.5743 72.9017 64.0236 72.9738 63.4468C73.046 62.8701 72.9774 62.2844 72.774 61.7399L69.1614 52.1099C68.8147 51.1934 68.2261 50.388 67.4581 49.7795C66.6901 49.1709 65.7715 48.7819 64.8 48.6539V38.1329C64.8074 36.3312 64.2669 34.5697 63.2502 33.0821C57.8574 25.2 54.954 25.2 54 25.2C53.046 25.2 50.1408 25.2 44.7498 33.0804C43.734 34.569 43.1936 36.3308 43.2 38.1329V48.6539C42.2292 48.7817 41.3111 49.1699 40.5432 49.7774C39.7752 50.385 39.1862 51.1891 38.8386 52.1045L35.226 61.7399C35.0226 62.2844 34.954 62.8701 35.0261 63.4468C35.0983 64.0236 35.309 64.5743 35.6403 65.0519C35.9716 65.5295 36.4137 65.9198 36.9286 66.1893C37.4436 66.4589 38.0161 66.5998 38.5974 66.5999ZM56.9034 62.9999L56.3022 64.7999H51.6978L51.0966 62.9999H56.9034ZM54 79.1999C52.6536 79.1999 50.4 74.6909 50.4 71.9999C50.4 71.0452 50.7793 70.1295 51.4544 69.4544C52.1295 68.7792 53.0452 68.3999 54 68.3999C54.9548 68.3999 55.8704 68.7792 56.5456 69.4544C57.2207 70.1295 57.6 71.0452 57.6 71.9999C57.6 74.6999 55.3464 79.1999 54 79.1999ZM65.79 53.3681L69.4026 62.9999H64.1124L63.9558 62.6867C64.2108 62.5306 64.422 62.3122 64.5696 62.0522C64.7173 61.7922 64.7965 61.4989 64.8 61.1999V52.3601C65.0248 52.4521 65.2286 52.5889 65.3988 52.7622C65.569 52.9355 65.7021 53.1417 65.79 53.3681ZM46.8 38.1329C46.7946 37.0569 47.1153 36.0045 47.7198 35.1143C51.138 30.1193 53.3232 28.8 54 28.8C54.6768 28.8 56.862 30.1194 60.2802 35.1162C60.8851 36.0054 61.2059 37.0574 61.2 38.1329V59.3999H55.8V48.5999H52.2V59.3999H46.8V38.1329ZM42.2082 53.3681C42.2969 53.1419 42.4305 52.9359 42.601 52.7627C42.7714 52.5894 42.9752 52.4525 43.2 52.3601V61.1999C43.2035 61.4989 43.2827 61.7922 43.4304 62.0522C43.578 62.3122 43.7892 62.5306 44.0442 62.6867L43.8876 62.9999H38.5974L42.2082 53.3681Z" fill="#F36C25"/>
<path d="M54.0001 43.1999C55.0681 43.1999 56.1122 42.8832 57.0002 42.2898C57.8882 41.6965 58.5803 40.8531 58.989 39.8664C59.3978 38.8797 59.5047 37.7939 59.2963 36.7464C59.088 35.6989 58.5737 34.7367 57.8185 33.9815C57.0633 33.2263 56.1011 32.712 55.0536 32.5037C54.0061 32.2953 52.9203 32.4022 51.9336 32.811C50.9469 33.2197 50.1035 33.9118 49.5102 34.7998C48.9168 35.6879 48.6001 36.7319 48.6001 37.7999C48.6001 39.2321 49.169 40.6056 50.1817 41.6183C51.1944 42.631 52.5679 43.1999 54.0001 43.1999ZM54.0001 35.9999C54.3561 35.9999 54.7041 36.1055 55.0001 36.3033C55.2961 36.501 55.5268 36.7822 55.6631 37.1111C55.7993 37.44 55.835 37.8019 55.7655 38.1511C55.6961 38.5002 55.5246 38.821 55.2729 39.0727C55.0212 39.3244 54.7004 39.4959 54.3513 39.5653C54.0021 39.6348 53.6402 39.5991 53.3113 39.4629C52.9824 39.3266 52.7012 39.0959 52.5035 38.7999C52.3057 38.5039 52.2001 38.1559 52.2001 37.7999C52.2001 37.3225 52.3897 36.8647 52.7273 36.5271C53.0649 36.1895 53.5227 35.9999 54.0001 35.9999Z" fill="#F36C25"/>
<path d="M68.4 70.2H64.8V77.3999H68.4V70.2Z" fill="#F36C25"/>
<path d="M43.2001 70.2H39.6001V77.3999H43.2001V70.2Z" fill="#F36C25"/>
<path d="M66.5999 82.8001C65.1678 82.8001 63.7943 83.369 62.7816 84.3817C61.7689 85.3944 61.1999 86.7679 61.1999 88.2001H64.7999C64.7999 87.7227 64.9896 87.2648 65.3272 86.9273C65.6647 86.5897 66.1226 86.4001 66.5999 86.4001C67.0773 86.4001 67.5352 86.5897 67.8727 86.9273C68.2103 87.2648 68.3999 87.7227 68.3999 88.2001C68.3974 88.3037 68.389 88.407 68.3747 88.5097C68.3385 88.8427 68.3959 89.1792 68.5406 89.4813C68.6852 89.7835 68.9112 90.0393 69.1933 90.22C69.4753 90.4007 69.8022 90.4991 70.1372 90.5041C70.4721 90.5091 70.8018 90.4206 71.0891 90.2485C71.3644 90.0841 71.6794 89.9982 71.9999 90.0001C72.4773 90.0001 72.9352 90.1897 73.2727 90.5273C73.6103 90.8648 73.7999 91.3227 73.7999 91.8001C73.7999 92.2775 73.6103 92.7353 73.2727 93.0729C72.9352 93.4104 72.4773 93.6001 71.9999 93.6001H36C35.5226 93.6001 35.0647 93.4104 34.7272 93.0729C34.3896 92.7353 34.2 92.2775 34.2 91.8001C34.2 91.3227 34.3896 90.8648 34.7272 90.5273C35.0647 90.1897 35.5226 90.0001 36 90.0001C36.3206 89.998 36.6356 90.0839 36.9108 90.2485C37.1988 90.4213 37.5294 90.51 37.8653 90.5047C38.2012 90.4994 38.5288 90.4002 38.8113 90.2183C39.0937 90.0365 39.3196 89.7792 39.4634 89.4757C39.6072 89.1721 39.6633 88.8344 39.6251 88.5007C39.6101 88.4011 39.6016 88.3007 39.5999 88.2001C39.5999 87.7227 39.7896 87.2648 40.1272 86.9273C40.4647 86.5897 40.9226 86.4001 41.4 86.4001C41.8773 86.4001 42.3352 86.5897 42.6727 86.9273C43.0103 87.2648 43.1999 87.7227 43.1999 88.2001H46.7999C46.8009 86.9247 46.3505 85.6901 45.5283 84.715C44.7062 83.74 43.5655 83.0874 42.3083 82.8729C41.0511 82.6583 39.7585 82.8957 38.6595 83.5429C37.5606 84.1902 36.7262 85.2055 36.3042 86.4091C35.5719 86.3734 34.8401 86.4861 34.1525 86.7404C33.4649 86.9947 32.8359 87.3853 32.3031 87.8888C31.7703 88.3924 31.3448 88.9984 31.0521 89.6705C30.7594 90.3427 30.6056 91.067 30.6 91.8001C30.6059 92.4147 30.718 93.0236 30.9312 93.6001H25.2V97.2001H82.7999V93.6001H77.0687C77.2819 93.0236 77.394 92.4147 77.3999 91.8001C77.3978 91.0658 77.2464 90.3396 76.9548 89.6657C76.6633 88.9918 76.2377 88.3842 75.704 87.88C75.1702 87.3757 74.5395 86.9852 73.8501 86.7324C73.1608 86.4795 72.4272 86.3695 71.694 86.4091C71.3231 85.3541 70.6338 84.4403 69.7213 83.7938C68.8089 83.1474 67.7182 82.8001 66.5999 82.8001Z" fill="#F36C25"/>
<path d="M32.4 10.8H25.2V14.4H32.4V10.8Z" fill="#F36C25"/>
<path d="M46.8 10.8H36V14.4H46.8V10.8Z" fill="#F36C25"/>
<path d="M46.7999 18H25.2V21.6H46.7999V18Z" fill="#F36C25"/>
<path d="M108 25.2H100.8V28.8H108V25.2Z" fill="#F36C25"/>
<path d="M108 32.3999H100.8V35.9999H108V32.3999Z" fill="#F36C25"/>
<path d="M108 57.6001H100.8V61.2001H108V57.6001Z" fill="#F36C25"/>
<path d="M108 64.8H100.8V68.4H108V64.8Z" fill="#F36C25"/>
<path d="M7.2 25.2H0V28.8H7.2V25.2Z" fill="#F36C25"/>
<path d="M7.2 32.3999H0V35.9999H7.2V32.3999Z" fill="#F36C25"/>
<path d="M7.2 57.6001H0V61.2001H7.2V57.6001Z" fill="#F36C25"/>
<path d="M7.2 64.8H0V68.4H7.2V64.8Z" fill="#F36C25"/>
</svg>
