<svg width="585" height="384" viewBox="0 0 585 384" fill="none" xmlns="http://www.w3.org/2000/svg">
<path opacity="0.2" d="M45.54 133.476L45.0561 134.351L45.0641 134.355L45.54 133.476ZM19.008 107.934L18.145 108.439L18.1496 108.447L19.008 107.934ZM19.008 35.466L18.1495 34.953L18.145 34.9608L19.008 35.466ZM45.54 10.122L46.016 11.0015L46.0239 10.9971L45.54 10.122ZM120.978 10.122L120.494 10.9972L120.502 11.0015L120.978 10.122ZM147.312 35.466L146.449 35.9712L146.452 35.9758L147.312 35.466ZM147.312 108.132L148.172 108.642L148.175 108.637L147.312 108.132ZM120.978 133.476L121.454 134.356L121.462 134.351L120.978 133.476ZM110.682 118.032L110.19 117.161L110.184 117.165L110.682 118.032ZM129.888 99.024L129.023 98.5219L129.021 98.5263L129.888 99.024ZM129.888 44.574L129.017 45.0656L129.022 45.074L129.027 45.0823L129.888 44.574ZM110.682 25.368L110.184 26.2354L110.19 26.2388L110.682 25.368ZM55.638 25.368L55.1524 24.4938L55.1464 24.4972L55.638 25.368ZM36.234 44.574L35.3692 44.0719L35.3666 44.0763L36.234 44.574ZM36.234 99.024L35.3632 99.5156L35.3679 99.524L35.3728 99.5323L36.234 99.024ZM55.638 118.032L55.1464 118.903L55.1524 118.906L55.638 118.032ZM83.358 141.584C69.5158 141.584 57.076 138.582 46.0159 132.597L45.0641 134.355C56.444 140.514 69.2162 143.584 83.358 143.584V141.584ZM46.0239 132.601C34.9558 126.481 26.2422 118.091 19.8664 107.421L18.1496 108.447C24.7098 119.425 33.6842 128.063 45.0561 134.351L46.0239 132.601ZM19.871 107.429C13.6304 96.7678 10.504 84.866 10.504 71.7H8.504C8.504 85.198 11.7136 97.4522 18.145 108.439L19.871 107.429ZM10.504 71.7C10.504 58.534 13.6304 46.6322 19.871 35.9712L18.145 34.9608C11.7136 45.9478 8.504 58.202 8.504 71.7H10.504ZM19.8664 35.9789C26.2411 25.3112 34.9521 16.989 46.0159 11.0015L45.0641 9.24252C33.6879 15.399 24.7109 23.9728 18.1496 34.953L19.8664 35.9789ZM46.0239 10.9971C57.0825 4.88238 69.5194 1.816 83.358 1.816V-0.184002C69.2126 -0.184002 56.4375 2.95362 45.0561 9.24687L46.0239 10.9971ZM83.358 1.816C97.0628 1.816 109.434 4.8816 120.494 10.9971L121.462 9.24687C110.082 2.9544 97.3732 -0.184002 83.358 -0.184002V1.816ZM120.502 11.0015C131.564 16.988 140.207 25.3078 146.449 35.9712L148.175 34.9608C141.745 23.9762 132.832 15.4 121.454 9.24252L120.502 11.0015ZM146.452 35.9758C152.689 46.5007 155.816 58.3999 155.816 71.7H157.816C157.816 58.0721 154.607 45.8153 148.172 34.9562L146.452 35.9758ZM155.816 71.7C155.816 84.9999 152.689 96.9673 146.449 107.627L148.175 108.637C154.607 97.6487 157.816 85.328 157.816 71.7H155.816ZM146.452 107.622C140.209 118.156 131.564 126.48 120.494 132.601L121.462 134.351C132.832 128.064 141.743 119.492 148.172 108.642L146.452 107.622ZM120.502 132.597C109.441 138.583 97.0665 141.584 83.358 141.584V143.584C97.3695 143.584 110.075 140.513 121.454 134.355L120.502 132.597ZM83.358 125.962C93.6796 125.962 102.962 123.614 111.18 118.899L110.184 117.165C102.298 121.69 93.3644 123.962 83.358 123.962V125.962ZM111.174 118.903C119.512 114.196 126.045 107.732 130.755 99.5217L129.021 98.5263C124.491 106.42 118.22 112.628 110.19 117.161L111.174 118.903ZM130.753 99.5261C135.599 91.1804 138.016 81.8974 138.016 71.7H136.016C136.016 81.5666 133.681 90.4996 129.023 98.5219L130.753 99.5261ZM138.016 71.7C138.016 61.5027 135.599 52.283 130.749 44.0657L129.027 45.0823C133.681 52.969 136.016 61.8333 136.016 71.7H138.016ZM130.759 44.0824C126.049 35.7398 119.516 29.2067 111.174 24.4972L110.19 26.2388C118.216 30.7693 124.487 37.0402 129.017 45.0656L130.759 44.0824ZM111.18 24.5006C102.962 19.7856 93.6796 17.438 83.358 17.438V19.438C93.3644 19.438 102.298 21.7104 110.184 26.2354L111.18 24.5006ZM83.358 17.438C73.0361 17.438 63.6271 19.7857 55.1524 24.4938L56.1236 26.2421C64.2809 21.7103 73.352 19.438 83.358 19.438V17.438ZM55.1464 24.4972C46.8063 29.2053 40.2099 35.7351 35.3692 44.0719L37.0988 45.0761C41.7621 37.0449 48.1017 30.7707 56.1296 26.2388L55.1464 24.4972ZM35.3666 44.0763C30.6528 52.2919 28.304 61.5079 28.304 71.7H30.304C30.304 61.8281 32.5752 52.9601 37.1014 45.0717L35.3666 44.0763ZM28.304 71.7C28.304 81.8922 30.6528 91.1715 35.3632 99.5156L37.1048 98.5324C32.5752 90.5085 30.304 81.5717 30.304 71.7H28.304ZM35.3728 99.5323C40.2145 107.736 46.8103 114.197 55.1464 118.903L56.1296 117.161C48.0977 112.627 41.7575 106.416 37.0952 98.5157L35.3728 99.5323ZM55.1524 118.906C63.6271 123.614 73.0361 125.962 83.358 125.962V123.962C73.352 123.962 64.2809 121.69 56.1236 117.158L55.1524 118.906ZM298.949 36.06H299.949V35.06H298.949V36.06ZM298.949 141V142H299.949V141H298.949ZM280.931 141H279.931V142H280.931V141ZM280.931 125.16H281.931V122.014L280.115 124.583L280.931 125.16ZM265.685 137.832L266.109 138.738L266.117 138.734L265.685 137.832ZM212.225 130.704L211.53 131.423L211.536 131.429L212.225 130.704ZM200.147 36.06V35.06H199.147V36.06H200.147ZM219.155 36.06H220.155V35.06H219.155V36.06ZM226.481 117.438L225.747 118.117L225.756 118.126L226.481 117.438ZM271.229 116.052L271.952 116.743L271.229 116.052ZM279.941 36.06V35.06H278.941V36.06H279.941ZM297.949 36.06V141H299.949V36.06H297.949ZM298.949 140H280.931V142H298.949V140ZM281.931 141V125.16H279.931V141H281.931ZM280.115 124.583C276.391 129.847 271.445 133.963 265.253 136.93L266.117 138.734C272.597 135.629 277.815 131.297 281.747 125.737L280.115 124.583ZM265.261 136.926C259.2 139.763 252.548 141.188 245.291 141.188V143.188C252.818 143.188 259.762 141.709 266.109 138.738L265.261 136.926ZM245.291 141.188C231.486 141.188 220.735 137.416 212.914 129.979L211.536 131.429C219.819 139.304 231.112 143.188 245.291 143.188V141.188ZM212.92 129.985C205.123 122.443 201.147 111.323 201.147 96.45H199.147C199.147 111.673 203.223 123.389 211.53 131.423L212.92 129.985ZM201.147 96.45V36.06H199.147V96.45H201.147ZM200.147 37.06H219.155V35.06H200.147V37.06ZM218.155 36.06V94.272H220.155V36.06H218.155ZM218.155 94.272C218.155 104.584 220.633 112.588 225.747 118.117L227.215 116.759C222.562 111.728 220.155 104.288 220.155 94.272H218.155ZM225.756 118.126C230.878 123.526 238.169 126.16 247.469 126.16V124.16C238.553 124.16 231.852 121.646 227.207 116.75L225.756 118.126ZM247.469 126.16C257.717 126.16 265.919 123.05 271.952 116.743L270.506 115.361C264.923 121.198 257.285 124.16 247.469 124.16V126.16ZM271.952 116.743C277.989 110.432 280.941 101.573 280.941 90.312H278.941C278.941 101.227 276.085 109.528 270.506 115.361L271.952 116.743ZM280.941 90.312V36.06H278.941V90.312H280.941ZM279.941 37.06H298.949V35.06H279.941V37.06ZM370.181 53.682H369.181L371.06 54.1595L370.181 53.682ZM384.833 39.822L384.393 38.9239L384.833 39.822ZM408.395 35.07H409.395V34.07H408.395V35.07ZM408.395 53.484L408.271 54.4763L409.395 54.6168V53.484H408.395ZM379.685 62.592L378.963 61.9004L378.962 61.9008L379.685 62.592ZM370.973 141V142H371.973V141H370.973ZM351.965 141H350.965V142H351.965V141ZM351.965 36.06V35.06H350.965V36.06H351.965ZM370.181 36.06H371.181V35.06H370.181V36.06ZM371.06 54.1595C374.256 48.2778 378.983 43.8009 385.273 40.7201L384.393 38.9239C377.747 42.1791 372.706 46.9422 369.302 53.2045L371.06 54.1595ZM385.273 40.7201C391.571 37.6353 399.266 36.07 408.395 36.07V34.07C399.044 34.07 391.031 35.6726 384.393 38.9239L385.273 40.7201ZM407.395 35.07V53.484H409.395V35.07H407.395ZM408.519 52.4917C407.403 52.3522 405.903 52.286 404.039 52.286V54.286C405.871 54.286 407.275 54.3518 408.271 54.4763L408.519 52.4917ZM404.039 52.286C393.529 52.286 385.128 55.4608 378.963 61.9004L380.407 63.2836C386.122 57.3151 393.957 54.286 404.039 54.286V52.286ZM378.962 61.9008C372.922 68.2163 369.973 77.2108 369.973 88.728H371.973C371.973 77.5412 374.833 69.1117 380.408 63.2832L378.962 61.9008ZM369.973 88.728V141H371.973V88.728H369.973ZM370.973 140H351.965V142H370.973V140ZM352.965 141V36.06H350.965V141H352.965ZM351.965 37.06H370.181V35.06H351.965V37.06ZM369.181 36.06V53.682H371.181V36.06H369.181ZM48.312 260.626H49.312V259.626H48.312V260.626ZM0.792 260.626H-0.208V261.626H0.792V260.626ZM0.792 243.4V242.4H-0.208V243.4H0.792ZM115.434 243.4H116.434V242.4H115.434V243.4ZM115.434 260.626V261.626H116.434V260.626H115.434ZM67.914 260.626V259.626H66.914V260.626H67.914ZM67.914 382V383H68.914V382H67.914ZM48.312 382H47.312V383H48.312V382ZM48.312 259.626H0.792V261.626H48.312V259.626ZM1.792 260.626V243.4H-0.208V260.626H1.792ZM0.792 244.4H115.434V242.4H0.792V244.4ZM114.434 243.4V260.626H116.434V243.4H114.434ZM115.434 259.626H67.914V261.626H115.434V259.626ZM66.914 260.626V382H68.914V260.626H66.914ZM67.914 381H48.312V383H67.914V381ZM49.312 382V260.626H47.312V382H49.312ZM234.675 335.866V336.866H235.57L235.669 335.976L234.675 335.866ZM149.535 335.866V334.866H148.398L148.543 335.994L149.535 335.866ZM161.613 358.24L160.976 359.011L160.984 359.017L160.992 359.024L161.613 358.24ZM217.845 353.884L218.605 353.234L217.867 352.371L217.104 353.212L217.845 353.884ZM228.339 366.16L229.098 366.811L229.655 366.161L229.099 365.51L228.339 366.16ZM210.519 378.832L210.142 377.906L210.135 377.908L210.519 378.832ZM157.455 376.456L156.981 377.337L156.991 377.342L157.455 376.456ZM137.457 357.25L136.586 357.742L136.592 357.752L137.457 357.25ZM137.259 302.008L136.388 301.516L136.382 301.527L137.259 302.008ZM156.069 283L156.562 283.87L156.567 283.867L156.069 283ZM209.925 283L209.415 283.86L209.423 283.865L209.432 283.87L209.925 283ZM228.339 302.008L227.456 302.478L227.462 302.489L228.339 302.008ZM160.227 300.424L159.56 299.678L159.553 299.686L160.227 300.424ZM149.535 322.204L148.542 322.087L148.41 323.204H149.535V322.204ZM216.855 322.204V323.204H217.981L217.848 322.085L216.855 322.204ZM205.965 300.622L205.282 301.353L205.29 301.36L205.299 301.368L205.965 300.622ZM234.071 330.124C234.071 331.523 233.943 333.396 233.681 335.756L235.669 335.976C235.935 333.584 236.071 331.629 236.071 330.124H234.071ZM234.675 334.866H149.535V336.866H234.675V334.866ZM148.543 335.994C149.762 345.472 153.906 353.165 160.976 359.011L162.25 357.469C155.591 351.963 151.684 344.74 150.527 335.738L148.543 335.994ZM160.992 359.024C168.191 364.729 177.066 367.556 187.551 367.556V365.556C177.444 365.556 169.027 362.839 162.234 357.456L160.992 359.024ZM187.551 367.556C200.342 367.556 210.72 363.235 218.586 354.556L217.104 353.212C209.658 361.429 199.84 365.556 187.551 365.556V367.556ZM217.085 354.534L227.579 366.81L229.099 365.51L218.605 353.234L217.085 354.534ZM227.58 365.509C222.937 370.926 217.13 375.059 210.142 377.906L210.896 379.758C218.163 376.797 224.237 372.482 229.098 366.811L227.58 365.509ZM210.135 377.908C203.278 380.755 195.557 382.188 186.957 382.188V384.188C195.781 384.188 203.768 382.717 210.902 379.756L210.135 377.908ZM186.957 382.188C176.007 382.188 166.336 379.973 157.918 375.57L156.991 377.342C165.734 381.915 175.731 384.188 186.957 384.188V382.188ZM157.929 375.576C149.507 371.04 142.978 364.767 138.322 356.748L136.592 357.752C141.44 366.101 148.243 372.632 156.981 377.336L157.929 375.576ZM138.328 356.758C133.8 348.738 131.527 339.671 131.527 329.53H129.527C129.527 339.981 131.873 349.394 136.586 357.742L138.328 356.758ZM131.527 329.53C131.527 319.519 133.736 310.513 138.136 302.489L136.382 301.527C131.806 309.871 129.527 319.213 129.527 329.53H131.527ZM138.13 302.5C142.663 294.468 148.805 288.266 156.562 283.87L155.576 282.13C147.493 286.71 141.094 293.18 136.388 301.516L138.13 302.5ZM156.567 283.867C164.455 279.341 173.323 277.07 183.195 277.07V275.07C173.003 275.07 163.787 277.419 155.571 282.133L156.567 283.867ZM183.195 277.07C193.067 277.07 201.797 279.341 209.415 283.86L210.435 282.14C202.476 277.419 193.387 275.07 183.195 275.07V277.07ZM209.432 283.87C217.183 288.263 223.188 294.458 227.456 302.478L229.222 301.538C224.778 293.19 218.506 286.713 210.418 282.13L209.432 283.87ZM227.462 302.489C231.859 310.507 234.071 319.71 234.071 330.124H236.071C236.071 319.418 233.795 309.877 229.216 301.527L227.462 302.489ZM183.195 291.108C173.866 291.108 165.966 293.954 159.561 299.678L160.893 301.17C166.896 295.805 174.308 293.108 183.195 293.108V291.108ZM159.553 299.686C153.285 305.408 149.623 312.898 148.542 322.087L150.528 322.321C151.559 313.558 155.025 306.528 160.901 301.162L159.553 299.686ZM149.535 323.204H216.855V321.204H149.535V323.204ZM217.848 322.085C216.765 313.018 213.03 305.595 206.631 299.876L205.299 301.368C211.307 306.737 214.833 313.702 215.862 322.323L217.848 322.085ZM206.648 299.891C200.372 294.025 192.53 291.108 183.195 291.108V293.108C192.076 293.108 199.414 295.867 205.282 301.353L206.648 299.891ZM346.873 286.762L346.191 287.494L346.198 287.5L346.873 286.762ZM358.555 382V383H359.555V382H358.555ZM340.537 382H339.537V383H340.537V382ZM340.537 368.14H341.537V364.761L339.698 367.596L340.537 368.14ZM326.875 379.426L327.271 380.344L327.281 380.34L326.875 379.426ZM277.771 374.674L277.141 375.451L277.148 375.456L277.771 374.674ZM277.375 330.124L278.011 330.896L278.019 330.889L277.375 330.124ZM339.547 321.61V322.61H340.547V321.61H339.547ZM332.419 299.038L333.095 298.301L332.419 299.038ZM293.215 295.672L293.531 296.621L293.54 296.618L293.55 296.614L293.215 295.672ZM278.167 303.79L277.293 304.276L277.881 305.335L278.809 304.556L278.167 303.79ZM270.247 289.534L269.62 288.755L268.964 289.283L269.373 290.02L270.247 289.534ZM289.651 279.634L289.937 280.592L289.944 280.59L289.952 280.588L289.651 279.634ZM328.063 363.784L328.577 364.641L328.585 364.637L328.593 364.632L328.063 363.784ZM339.547 349.924L340.475 350.295L340.547 350.117V349.924H339.547ZM339.547 335.272H340.547V334.272H339.547V335.272ZM313.609 277.07C327.975 277.07 338.782 280.595 346.191 287.494L347.554 286.03C339.652 278.673 328.283 275.07 313.609 275.07V277.07ZM346.198 287.5C353.715 294.38 357.555 304.697 357.555 318.64H359.555C359.555 304.335 355.606 293.4 347.548 286.024L346.198 287.5ZM357.555 318.64V382H359.555V318.64H357.555ZM358.555 381H340.537V383H358.555V381ZM341.537 382V368.14H339.537V382H341.537ZM339.698 367.596C336.647 372.299 332.253 375.941 326.469 378.512L327.281 380.34C333.377 377.631 338.09 373.749 341.376 368.684L339.698 367.596ZM326.478 378.508C320.825 380.949 314.036 382.188 306.085 382.188V384.188C314.237 384.188 321.309 382.919 327.271 380.344L326.478 378.508ZM306.085 382.188C294.497 382.188 285.299 379.39 278.394 373.892L277.148 375.456C284.499 381.31 294.177 384.188 306.085 384.188V382.188ZM278.401 373.897C271.646 368.417 268.277 361.248 268.277 352.3H266.277C266.277 361.832 269.904 369.579 277.141 375.451L278.401 373.897ZM268.277 352.3C268.277 343.338 271.524 336.237 278.01 330.896L276.739 329.352C269.761 335.099 266.277 342.782 266.277 352.3H268.277ZM278.019 330.889C284.485 325.437 294.89 322.61 309.451 322.61V320.61C294.708 320.61 283.729 323.459 276.73 329.359L278.019 330.889ZM309.451 322.61H339.547V320.61H309.451V322.61ZM340.547 321.61V317.848H338.547V321.61H340.547ZM340.547 317.848C340.547 309.464 338.106 302.895 333.095 298.301L331.743 299.775C336.236 303.893 338.547 309.864 338.547 317.848H340.547ZM333.095 298.301C328.092 293.715 320.813 291.504 311.431 291.504V293.504C320.528 293.504 327.242 295.649 331.743 299.775L333.095 298.301ZM311.431 291.504C305.111 291.504 298.926 292.58 292.88 294.73L293.55 296.614C299.384 294.54 305.343 293.504 311.431 293.504V291.504ZM292.899 294.723C286.859 296.736 281.728 299.498 277.524 303.024L278.809 304.556C282.79 301.218 287.69 298.568 293.531 296.621L292.899 294.723ZM279.041 303.304L271.121 289.048L269.373 290.02L277.293 304.276L279.041 303.304ZM270.874 290.313C276.172 286.048 282.521 282.804 289.937 280.592L289.365 278.676C281.733 280.952 275.145 284.308 269.62 288.755L270.874 290.313ZM289.952 280.588C297.372 278.244 305.256 277.07 313.609 277.07V275.07C305.066 275.07 296.978 276.272 289.35 278.68L289.952 280.588ZM309.253 369.536C316.661 369.536 323.116 367.918 328.577 364.641L327.548 362.927C322.45 365.986 316.364 367.536 309.253 367.536V369.536ZM328.593 364.632C334.058 361.216 338.023 356.427 340.475 350.295L338.618 349.553C336.319 355.301 332.628 359.752 327.533 362.936L328.593 364.632ZM340.547 349.924V335.272H338.547V349.924H340.547ZM339.547 334.272H310.243V336.272H339.547V334.272ZM310.243 334.272C302.11 334.272 295.835 335.633 291.568 338.501C287.23 341.417 285.087 345.808 285.087 351.508H287.087C287.087 346.384 288.97 342.657 292.684 340.161C296.468 337.617 302.271 336.272 310.243 336.272V334.272ZM285.087 351.508C285.087 357.091 287.272 361.553 291.629 364.785L292.821 363.179C288.994 360.339 287.087 356.485 287.087 351.508H285.087ZM291.629 364.785C295.953 367.993 301.866 369.536 309.253 369.536V367.536C302.119 367.536 296.681 366.043 292.821 363.179L291.629 364.785ZM573.119 287.554L572.412 288.261L572.418 288.267L573.119 287.554ZM584.801 382V383H585.801V382H584.801ZM565.793 382H564.793V383H565.793V382ZM558.665 300.82L557.92 301.488L557.93 301.498L558.665 300.82ZM515.699 302.206L516.422 302.897L516.429 302.889L515.699 302.206ZM507.185 382V383H508.185V382H507.185ZM488.177 382H487.177V383H488.177V382ZM481.049 300.82L480.304 301.488L480.314 301.498L481.049 300.82ZM438.083 302.206L438.806 302.897L438.813 302.889L438.083 302.206ZM429.569 382V383H430.569V382H429.569ZM410.561 382H409.561V383H410.561V382ZM410.561 277.06V276.06H409.561V277.06H410.561ZM428.777 277.06H429.777V276.06H428.777V277.06ZM428.777 292.702H427.777V295.848L429.593 293.279L428.777 292.702ZM443.825 280.426L444.233 281.339L444.241 281.335L444.249 281.332L443.825 280.426ZM486.791 281.02L487.253 280.133L486.791 281.02ZM501.443 295.474L500.563 295.95L501.363 297.427L502.28 296.02L501.443 295.474ZM517.877 281.218L517.443 280.317L517.436 280.32L517.877 281.218ZM541.835 277.07C554.831 277.07 564.983 280.832 572.412 288.261L573.826 286.847C565.943 278.964 555.238 275.07 541.835 275.07V277.07ZM572.418 288.267C579.951 295.673 583.801 306.726 583.801 321.61H585.801C585.801 306.398 581.862 294.747 573.82 286.841L572.418 288.267ZM583.801 321.61V382H585.801V321.61H583.801ZM584.801 381H565.793V383H584.801V381ZM566.793 382V323.788H564.793V382H566.793ZM566.793 323.788C566.793 313.485 564.385 305.543 559.4 300.142L557.93 301.498C562.448 306.393 564.793 313.763 564.793 323.788H566.793ZM559.409 300.152C554.552 294.74 547.584 292.098 538.667 292.098V294.098C547.174 294.098 553.537 296.604 557.92 301.488L559.409 300.152ZM538.667 292.098C528.802 292.098 520.864 295.216 514.968 301.523L516.429 302.889C521.886 297.052 529.259 294.098 538.667 294.098V292.098ZM514.976 301.515C509.065 307.701 506.185 316.564 506.185 327.946H508.185C508.185 316.888 510.98 308.592 516.422 302.897L514.976 301.515ZM506.185 327.946V382H508.185V327.946H506.185ZM507.185 381H488.177V383H507.185V381ZM489.177 382V323.788H487.177V382H489.177ZM489.177 323.788C489.177 313.485 486.769 305.543 481.784 300.142L480.314 301.498C484.832 306.393 487.177 313.763 487.177 323.788H489.177ZM481.793 300.152C476.936 294.74 469.968 292.098 461.051 292.098V294.098C469.558 294.098 475.921 296.604 480.304 301.488L481.793 300.152ZM461.051 292.098C451.186 292.098 443.248 295.216 437.352 301.523L438.813 302.889C444.27 297.052 451.643 294.098 461.051 294.098V292.098ZM437.36 301.515C431.449 307.701 428.569 316.564 428.569 327.946H430.569C430.569 316.888 433.364 308.592 438.806 302.897L437.36 301.515ZM428.569 327.946V382H430.569V327.946H428.569ZM429.569 381H410.561V383H429.569V381ZM411.561 382V277.06H409.561V382H411.561ZM410.561 278.06H428.777V276.06H410.561V278.06ZM427.777 277.06V292.702H429.777V277.06H427.777ZM429.593 293.279C433.315 288.018 438.188 284.04 444.233 281.339L443.417 279.513C437.053 282.356 431.895 286.562 427.96 292.125L429.593 293.279ZM444.249 281.332C450.301 278.499 457.214 277.07 465.011 277.07V275.07C456.967 275.07 449.757 276.545 443.401 279.52L444.249 281.332ZM465.011 277.07C473.057 277.07 480.155 278.691 486.329 281.907L487.253 280.133C480.754 276.749 473.332 275.07 465.011 275.07V277.07ZM486.329 281.907C492.486 285.114 497.226 289.788 500.563 295.95L502.322 294.998C498.796 288.488 493.767 283.526 487.253 280.133L486.329 281.907ZM502.28 296.02C506.135 290.11 511.47 285.475 518.317 282.116L517.436 280.32C510.291 283.825 504.671 288.694 500.605 294.928L502.28 296.02ZM518.311 282.119C525.288 278.759 533.123 277.07 541.835 277.07V275.07C532.858 275.07 524.721 276.812 517.443 280.317L518.311 282.119Z" fill="black"/>
</svg>
