<svg width="646" height="312" viewBox="0 0 646 312" fill="none" xmlns="http://www.w3.org/2000/svg">
<path d="M60.624 103.152C50.448 103.152 41.28 100.944 33.12 96.528C24.96 92.016 18.528 85.824 13.824 77.952C9.216 70.08 6.912 61.296 6.912 51.6C6.912 41.904 9.216 33.12 13.824 25.248C18.528 17.376 24.96 11.232 33.12 6.816C41.28 2.304 50.448 0.0479994 60.624 0.0479994C70.704 0.0479994 79.824 2.304 87.984 6.816C96.144 11.232 102.528 17.376 107.136 25.248C111.744 33.024 114.048 41.808 114.048 51.6C114.048 61.392 111.744 70.224 107.136 78.096C102.528 85.872 96.144 92.016 87.984 96.528C79.824 100.944 70.704 103.152 60.624 103.152ZM60.624 90.336C68.016 90.336 74.64 88.656 80.496 85.296C86.448 81.936 91.104 77.328 94.464 71.472C97.92 65.52 99.648 58.896 99.648 51.6C99.648 44.304 97.92 37.728 94.464 31.872C91.104 25.92 86.448 21.264 80.496 17.904C74.64 14.544 68.016 12.864 60.624 12.864C53.232 12.864 46.512 14.544 40.464 17.904C34.512 21.264 29.808 25.92 26.352 31.872C22.992 37.728 21.312 44.304 21.312 51.6C21.312 58.896 22.992 65.52 26.352 71.472C29.808 77.328 34.512 81.936 40.464 85.296C46.512 88.656 53.232 90.336 60.624 90.336ZM210.938 25.68V102H197.834V90.48C195.05 94.416 191.354 97.488 186.746 99.696C182.234 101.808 177.29 102.864 171.914 102.864C161.738 102.864 153.722 100.08 147.866 94.512C142.01 88.848 139.082 80.544 139.082 69.6V25.68H152.906V68.016C152.906 75.408 154.682 81.024 158.234 84.864C161.786 88.608 166.874 90.48 173.498 90.48C180.794 90.48 186.554 88.272 190.778 83.856C195.002 79.44 197.114 73.2 197.114 65.136V25.68H210.938ZM256.263 38.496C258.663 34.08 262.215 30.72 266.919 28.416C271.623 26.112 277.335 24.96 284.055 24.96V38.352C283.287 38.256 282.231 38.208 280.887 38.208C273.399 38.208 267.495 40.464 263.175 44.976C258.951 49.392 256.839 55.728 256.839 63.984V102H243.015V25.68H256.263V38.496ZM55.876 169.623H0.916V149.7H133.507V169.623H78.547V310H55.876V169.623ZM261.57 250.002C261.57 251.681 261.417 253.895 261.112 256.643H162.642C164.016 267.33 168.672 275.955 176.611 282.52C184.702 288.932 194.702 292.138 206.61 292.138C221.113 292.138 232.792 287.253 241.647 277.482L253.784 291.68C248.288 298.092 241.418 302.977 233.174 306.336C225.083 309.695 215.999 311.374 205.923 311.374C193.099 311.374 181.725 308.779 171.802 303.588C161.879 298.245 154.169 290.84 148.673 281.375C143.33 271.91 140.658 261.223 140.658 249.315C140.658 237.56 143.253 226.949 148.444 217.484C153.787 208.019 161.039 200.691 170.199 195.5C179.512 190.157 189.969 187.485 201.572 187.485C213.175 187.485 223.48 190.157 232.487 195.5C241.647 200.691 248.746 208.019 253.784 217.484C258.975 226.949 261.57 237.789 261.57 250.002ZM201.572 206.034C191.038 206.034 182.183 209.24 175.008 215.652C167.985 222.064 163.863 230.461 162.642 240.842H240.502C239.281 230.613 235.082 222.293 227.907 215.881C220.884 209.316 212.106 206.034 201.572 206.034ZM342.099 187.485C358.893 187.485 371.717 191.607 380.571 199.851C389.579 208.095 394.082 220.385 394.082 236.72V310H373.243V293.97C369.579 299.619 364.312 303.97 357.442 307.023C350.725 309.924 342.71 311.374 333.397 311.374C319.81 311.374 308.894 308.092 300.65 301.527C292.559 294.962 288.513 286.337 288.513 275.65C288.513 264.963 292.406 256.414 300.192 250.002C307.978 243.437 320.344 240.155 337.29 240.155H372.098V235.804C372.098 226.339 369.35 219.087 363.854 214.049C358.358 209.011 350.267 206.492 339.58 206.492C332.405 206.492 325.382 207.713 318.512 210.156C311.642 212.446 305.841 215.576 301.108 219.545L291.948 203.057C298.208 198.019 305.688 194.202 314.39 191.607C323.092 188.859 332.329 187.485 342.099 187.485ZM337.061 294.428C345.458 294.428 352.71 292.596 358.816 288.932C364.923 285.115 369.35 279.772 372.098 272.902V255.956H338.206C319.581 255.956 310.268 262.215 310.268 274.734C310.268 280.841 312.635 285.65 317.367 289.161C322.1 292.672 328.665 294.428 337.061 294.428ZM595.752 187.485C611.019 187.485 623.08 191.912 631.934 200.767C640.942 209.622 645.445 222.751 645.445 240.155V310H623.461V242.674C623.461 230.919 620.713 222.064 615.217 216.11C609.874 210.156 602.164 207.179 592.088 207.179C580.944 207.179 572.089 210.69 565.524 217.713C558.96 224.583 555.677 234.506 555.677 247.483V310H533.693V242.674C533.693 230.919 530.945 222.064 525.449 216.11C520.106 210.156 512.396 207.179 502.32 207.179C491.176 207.179 482.321 210.69 475.756 217.713C469.192 224.583 465.909 234.506 465.909 247.483V310H443.925V188.63H464.993V206.721C469.421 200.462 475.222 195.729 482.397 192.523C489.573 189.164 497.74 187.485 506.9 187.485C516.366 187.485 524.762 189.393 532.09 193.21C539.418 197.027 545.067 202.599 549.036 209.927C553.616 202.904 559.952 197.408 568.043 193.439C576.287 189.47 585.524 187.485 595.752 187.485Z" fill="black"/>
</svg>
