<svg width="46" height="46" viewBox="0 0 46 46" fill="none" xmlns="http://www.w3.org/2000/svg">
<path d="M35.6432 6.57148C35.6432 7.2026 35.1314 7.71437 34.5003 7.71437C33.8692 7.71437 33.3574 7.2026 33.3574 6.57148C33.3574 5.94036 33.8692 5.42859 34.5003 5.42859C35.1314 5.42859 35.6432 5.94036 35.6432 6.57148Z" stroke="white"/>
<mask id="path-2-inside-1_902_347" fill="white">
<path d="M46.001 14.786V8.5544L37.4466 0H35.3222V3.40238C36.3637 3.67119 37.2075 4.4329 37.5815 5.44136C37.9556 6.44981 37.8122 7.57749 37.1979 8.46015C36.5837 9.3432 35.5763 9.86984 34.5008 9.86984C33.4252 9.86984 32.4178 9.34324 31.8036 8.46015C31.1893 7.57746 31.046 6.44981 31.42 5.44136C31.7941 4.4329 32.6379 3.67126 33.6793 3.40238V0H23.822V5.04528C24.8635 5.31408 25.7072 6.07579 26.0813 7.08425C26.4553 8.0927 26.3119 9.22038 25.6977 10.103C25.0834 10.9861 24.0761 11.5127 23.0005 11.5127C21.9249 11.5127 20.9175 10.9861 20.3034 10.103C19.6891 9.22036 19.5457 8.0927 19.9198 7.08425C20.2938 6.07579 21.1377 5.31415 22.1791 5.04528V0H12.3217V3.40238C13.3632 3.67119 14.207 4.4329 14.581 5.44136C14.9551 6.44981 14.8117 7.57749 14.1975 8.46015C13.5832 9.3432 12.5759 9.86984 11.5003 9.86984C10.4247 9.86984 9.41729 9.34324 8.80313 8.46015C8.18887 7.57746 8.04549 6.44981 8.41955 5.44136C8.7936 4.4329 9.63744 3.67126 10.6789 3.40238V0H8.55445L4.72721e-05 8.5544V10.6788H6.57162C6.78945 10.6788 6.99848 10.7653 7.1525 10.9194L11.2597 15.0266L10.0983 16.188L6.23163 12.3216H0V19.7147H3.40238C3.67119 18.6732 4.4329 17.8294 5.44136 17.4554C6.44981 17.0813 7.57749 17.2247 8.46015 17.8389C9.3432 18.4532 9.86984 19.4605 9.86984 20.5361C9.86984 21.6117 9.34324 22.6191 8.46015 23.2333C7.57746 23.8475 6.44981 23.9909 5.44136 23.6168C4.4329 23.2428 3.67126 22.3989 3.40238 21.3575H0V25.9463L4.44717 30.3935H5.75013V26.2862H7.39302V30.3935H13.1431V21.3575C13.1431 21.1397 13.2297 20.9307 13.3837 20.7767L19.1338 15.0265C19.2879 14.8725 19.4969 14.786 19.7147 14.786H28.0458C28.3146 13.7445 29.0763 12.9007 30.0848 12.5267C31.0932 12.1526 32.2209 12.296 33.1035 12.9102C33.9866 13.5245 34.5132 14.5318 34.5132 15.6074C34.5132 16.683 33.9866 17.6904 33.1035 18.3046C32.2209 18.9188 31.0932 19.0622 30.0848 18.6882C29.0763 18.3141 28.3147 17.4703 28.0458 16.4288H20.0547L14.786 21.6975V30.3934H22.1791V26.9911C21.1376 26.7222 20.2938 25.9605 19.9198 24.9521C19.5457 23.9436 19.6891 22.8159 20.3033 21.9333C20.9176 21.0502 21.9249 20.5236 23.0005 20.5236C24.0761 20.5236 25.0835 21.0502 25.6977 21.9333C26.3119 22.816 26.4553 23.9436 26.0812 24.9521C25.7072 25.9605 24.8633 26.7222 23.8219 26.9911V31.2149C23.8219 31.4327 23.7354 31.6417 23.5814 31.7958C23.4273 31.9498 23.2183 32.0363 23.0005 32.0363H18.6105L25.9577 46.0009H33.2029L26.3684 31.5669C26.2481 31.3128 26.2661 31.015 26.4157 30.7774C26.5657 30.5394 26.8268 30.3949 27.1077 30.3938H30.3935V23.0008H32.0364V30.3938H46.001V24.6437H41.7772C41.5084 25.6852 40.7466 26.529 39.7382 26.903C38.7297 27.277 37.6021 27.1336 36.7194 26.5194C35.8363 25.9051 35.3097 24.8978 35.3097 23.8222C35.3097 22.7467 35.8363 21.7392 36.7194 21.1251C37.6021 20.5108 38.7297 20.3674 39.7382 20.7415C40.7466 21.1155 41.5083 21.9594 41.7772 23.0008H46.001V16.4292H38.608V14.7863L46.001 14.786Z"/>
</mask>
<path d="M46.001 14.786V8.5544L37.4466 0H35.3222V3.40238C36.3637 3.67119 37.2075 4.4329 37.5815 5.44136C37.9556 6.44981 37.8122 7.57749 37.1979 8.46015C36.5837 9.3432 35.5763 9.86984 34.5008 9.86984C33.4252 9.86984 32.4178 9.34324 31.8036 8.46015C31.1893 7.57746 31.046 6.44981 31.42 5.44136C31.7941 4.4329 32.6379 3.67126 33.6793 3.40238V0H23.822V5.04528C24.8635 5.31408 25.7072 6.07579 26.0813 7.08425C26.4553 8.0927 26.3119 9.22038 25.6977 10.103C25.0834 10.9861 24.0761 11.5127 23.0005 11.5127C21.9249 11.5127 20.9175 10.9861 20.3034 10.103C19.6891 9.22036 19.5457 8.0927 19.9198 7.08425C20.2938 6.07579 21.1377 5.31415 22.1791 5.04528V0H12.3217V3.40238C13.3632 3.67119 14.207 4.4329 14.581 5.44136C14.9551 6.44981 14.8117 7.57749 14.1975 8.46015C13.5832 9.3432 12.5759 9.86984 11.5003 9.86984C10.4247 9.86984 9.41729 9.34324 8.80313 8.46015C8.18887 7.57746 8.04549 6.44981 8.41955 5.44136C8.7936 4.4329 9.63744 3.67126 10.6789 3.40238V0H8.55445L4.72721e-05 8.5544V10.6788H6.57162C6.78945 10.6788 6.99848 10.7653 7.1525 10.9194L11.2597 15.0266L10.0983 16.188L6.23163 12.3216H0V19.7147H3.40238C3.67119 18.6732 4.4329 17.8294 5.44136 17.4554C6.44981 17.0813 7.57749 17.2247 8.46015 17.8389C9.3432 18.4532 9.86984 19.4605 9.86984 20.5361C9.86984 21.6117 9.34324 22.6191 8.46015 23.2333C7.57746 23.8475 6.44981 23.9909 5.44136 23.6168C4.4329 23.2428 3.67126 22.3989 3.40238 21.3575H0V25.9463L4.44717 30.3935H5.75013V26.2862H7.39302V30.3935H13.1431V21.3575C13.1431 21.1397 13.2297 20.9307 13.3837 20.7767L19.1338 15.0265C19.2879 14.8725 19.4969 14.786 19.7147 14.786H28.0458C28.3146 13.7445 29.0763 12.9007 30.0848 12.5267C31.0932 12.1526 32.2209 12.296 33.1035 12.9102C33.9866 13.5245 34.5132 14.5318 34.5132 15.6074C34.5132 16.683 33.9866 17.6904 33.1035 18.3046C32.2209 18.9188 31.0932 19.0622 30.0848 18.6882C29.0763 18.3141 28.3147 17.4703 28.0458 16.4288H20.0547L14.786 21.6975V30.3934H22.1791V26.9911C21.1376 26.7222 20.2938 25.9605 19.9198 24.9521C19.5457 23.9436 19.6891 22.8159 20.3033 21.9333C20.9176 21.0502 21.9249 20.5236 23.0005 20.5236C24.0761 20.5236 25.0835 21.0502 25.6977 21.9333C26.3119 22.816 26.4553 23.9436 26.0812 24.9521C25.7072 25.9605 24.8633 26.7222 23.8219 26.9911V31.2149C23.8219 31.4327 23.7354 31.6417 23.5814 31.7958C23.4273 31.9498 23.2183 32.0363 23.0005 32.0363H18.6105L25.9577 46.0009H33.2029L26.3684 31.5669C26.2481 31.3128 26.2661 31.015 26.4157 30.7774C26.5657 30.5394 26.8268 30.3949 27.1077 30.3938H30.3935V23.0008H32.0364V30.3938H46.001V24.6437H41.7772C41.5084 25.6852 40.7466 26.529 39.7382 26.903C38.7297 27.277 37.6021 27.1336 36.7194 26.5194C35.8363 25.9051 35.3097 24.8978 35.3097 23.8222C35.3097 22.7467 35.8363 21.7392 36.7194 21.1251C37.6021 20.5108 38.7297 20.3674 39.7382 20.7415C40.7466 21.1155 41.5083 21.9594 41.7772 23.0008H46.001V16.4292H38.608V14.7863L46.001 14.786Z" stroke="white" stroke-width="2" mask="url(#path-2-inside-1_902_347)"/>
<path d="M39.7506 23.8218C39.7506 24.453 39.2389 24.9647 38.6077 24.9647C37.9766 24.9647 37.4648 24.453 37.4648 23.8218C37.4648 23.1907 37.9766 22.679 38.6077 22.679C39.2389 22.679 39.7506 23.1907 39.7506 23.8218Z" stroke="white"/>
<path d="M33.1793 38.6082V39.1082H33.6793H41.9897L41.3468 39.7511H32.6133L29.1954 32.5366H45.5011V33.1795H32.0365H31.5365V33.6795V35.3224V35.8224H32.0365H45.2755L44.6326 36.4653H33.6793H33.1793V36.9653V38.6082Z" stroke="white"/>
<path d="M24.1432 23.8218C24.1432 24.453 23.6314 24.9647 23.0003 24.9647C22.3692 24.9647 21.8574 24.453 21.8574 23.8218C21.8574 23.1907 22.3692 22.679 23.0003 22.679C23.6314 22.679 24.1432 23.1907 24.1432 23.8218Z" stroke="white"/>
<path d="M24.1432 8.21443C24.1432 8.84555 23.6314 9.35732 23.0003 9.35732C22.3692 9.35732 21.8574 8.84555 21.8574 8.21443C21.8574 7.58331 22.3692 7.07153 23.0003 7.07153C23.6314 7.07153 24.1432 7.58331 24.1432 8.21443Z" stroke="white"/>
<path d="M12.6432 6.57148C12.6432 7.2026 12.1314 7.71437 11.5003 7.71437C10.8692 7.71437 10.3574 7.2026 10.3574 6.57148C10.3574 5.94036 10.8692 5.42859 11.5003 5.42859C12.1314 5.42859 12.6432 5.94036 12.6432 6.57148Z" stroke="white"/>
<path d="M32.3581 15.6074C32.3581 16.2385 31.8463 16.7503 31.2152 16.7503C30.584 16.7503 30.0723 16.2385 30.0723 15.6074C30.0723 14.9763 30.584 14.4645 31.2152 14.4645C31.8463 14.4645 32.3581 14.9763 32.3581 15.6074Z" stroke="white"/>
<path d="M7.7145 20.5362C7.7145 21.1673 7.20272 21.6791 6.5716 21.6791C5.94048 21.6791 5.42871 21.1673 5.42871 20.5362C5.42871 19.9051 5.94048 19.3933 6.5716 19.3933C7.20272 19.3933 7.7145 19.9051 7.7145 20.5362Z" stroke="white"/>
</svg>
