<svg width="47" height="47" viewBox="0 0 47 47" fill="none" xmlns="http://www.w3.org/2000/svg">
<path d="M44.7999 15.3265H25.424V26.4497H44.7999V15.3265ZM12.8655 29.5765C12.8655 28.6025 13.6858 27.7823 14.6598 27.7823C15.6338 27.7823 16.454 28.6025 16.454 29.5765C16.454 30.2941 15.9928 30.9606 15.3263 31.217L15.3775 33.4209H20.7082V23.3229H1.33234V33.4209H13.9933L13.9422 31.217C13.3272 30.9603 12.8655 30.2941 12.8655 29.5765V29.5765ZM14.2496 29.5765C14.2496 29.8329 14.4545 29.9866 14.7109 29.9866C14.9672 29.9866 15.121 29.7818 15.121 29.5765C15.121 29.3716 14.9161 29.1664 14.7109 29.1664C14.4549 29.1149 14.2496 29.3202 14.2496 29.5765ZM14.2496 11.7897C14.2496 10.8157 15.0699 9.99542 16.0439 9.99542C16.7615 9.99542 17.428 10.4567 17.6843 11.1231H24.0405V7.02231H11.9938V15.8904H21.4254C21.7844 15.8904 22.0919 16.1979 22.0919 16.5569V34.0874C22.0919 34.4464 21.7844 34.7539 21.4254 34.7539L15.4281 34.7535L15.4793 37.0601L34.4451 37.1112L34.4454 31.3703H24.7575C24.3985 31.3703 24.091 31.0628 24.091 30.7038V14.6085C24.091 14.2495 24.3985 13.9421 24.7575 13.9421H34.4454V12.4557L17.6838 12.4554C17.4274 13.1219 16.7613 13.5831 16.0433 13.5831C15.0696 13.5831 14.2494 12.7632 14.2494 11.7892L14.2496 11.7897ZM15.5823 11.7897C15.5823 12.046 15.7872 12.1998 16.0435 12.1998C16.2999 12.1998 16.4536 11.9949 16.4536 11.7897C16.4536 11.5333 16.2488 11.3284 16.0435 11.3284C15.8386 11.3284 15.5823 11.5333 15.5823 11.7897ZM21.7336 40.0846C22.5538 39.2644 23.8865 39.2644 24.7066 40.0846C25.5268 40.9048 25.5269 42.2375 24.7066 43.0066C23.8864 43.8268 22.5538 43.8268 21.7336 43.0066C20.9134 42.2375 20.9134 40.9045 21.7336 40.0846ZM22.7073 41.0583C22.3998 41.3658 22.3998 41.827 22.7073 42.0833C22.9636 42.3397 23.476 42.3397 23.7324 42.0833C23.9887 41.7758 23.9887 41.3146 23.7324 41.0583C23.4252 40.7508 22.9636 40.7508 22.7073 41.0583ZM25.4244 27.7822V29.9861H44.8002V27.7822H25.4244ZM14.9163 18.9145C15.7876 18.9145 15.7876 20.2471 14.9163 20.2471H3.94686C3.0755 20.2471 3.0755 18.9145 3.94686 18.9145H14.9163ZM8.09883 30.294C8.97019 30.294 8.97019 31.6266 8.09883 31.6266H3.89541C3.02406 31.6266 3.02406 30.294 3.89541 30.294H8.09883ZM10.7644 27.6796C11.6357 27.6796 11.6357 29.0122 10.7644 29.0122L3.94695 29.0126C3.07559 29.0126 3.07559 27.6799 3.94695 27.6799L10.7644 27.6796ZM12.712 25.1166C13.5833 25.1166 13.5833 26.4493 12.712 26.4493L3.94686 26.4496C3.0755 26.4496 3.0755 25.117 3.94686 25.117L12.712 25.1166ZM16.6078 38.444L20.6571 42.3395C20.8108 42.4933 20.862 42.647 20.862 42.8523V44.7488H34.3431V38.3928L16.6078 38.444ZM19.5808 44.8002V43.1597L14.711 38.4439H11.9942V44.8001L19.5808 44.8002ZM14.0959 37.1113L14.0448 34.8048H11.9431V37.1113H14.0959ZM1.33247 21.9899H20.7084V17.2741H1.33247V21.9899ZM0.666347 15.8904H10.6106V0.666476C10.6106 0.307489 10.9181 0 11.2767 0H35.0609C35.4198 0 35.7273 0.307499 35.7273 0.666476V5.63859H45.4153C45.7743 5.63859 46.0818 5.94609 46.0818 6.30507V11.7896C46.0818 12.1486 45.7743 12.4561 45.4153 12.4561L35.7786 12.4557V13.942H45.4665C45.8255 13.942 46.133 14.2495 46.133 14.6085V30.6526C46.133 31.0116 45.8255 31.319 45.4665 31.319H35.7786V45.4153C35.7786 45.7742 35.4711 46.0817 35.1121 46.0817H35.061H11.3281C10.9691 46.0817 10.6616 45.7742 10.6616 45.4153L10.662 34.8047H0.666477C0.30749 34.8047 0 34.4972 0 34.1382V16.5564C0 16.1977 0.307499 15.8902 0.666477 15.8902L0.666347 15.8904ZM38.9055 23.1692C38.1368 23.5793 37.4703 22.4515 38.239 21.9903L40.443 20.76L37.9827 19.1195C37.2651 18.6583 37.9827 17.5306 38.7514 17.9918L42.0831 20.2473C42.5443 20.5037 42.5443 21.1698 42.0831 21.4262L38.9055 23.1692ZM34.5487 23.6304C34.1897 24.4506 32.9598 23.8868 33.3184 23.0665L35.6765 18.0433C36.0355 17.2745 37.2654 17.8384 36.9068 18.6071L34.5487 23.6304ZM31.9343 22.0415C32.703 22.4516 32.0369 23.6304 31.2678 23.2203L28.0899 21.4261C27.6286 21.1697 27.6286 20.5036 28.0899 20.2472L31.4215 17.9917C32.1391 17.479 32.9078 18.6067 32.1903 19.1194L29.7303 20.7599L31.9343 22.0415ZM25.4247 6.97134V11.0721H44.8006V6.97134H25.4247V6.97134ZM11.9949 5.63869H34.4463V1.33267H11.9949V5.63869ZM25.4247 2.87053C26.2961 2.87053 26.2961 4.20317 25.4247 4.20317H21.0164C20.1451 4.20317 20.1451 2.87053 21.0164 2.87053H25.4247Z" fill="white"/>
</svg>
