<svg width="46" height="46" viewBox="0 0 46 46" fill="none" xmlns="http://www.w3.org/2000/svg">
<path d="M5.81281 22.5193C5.8108 21.9178 5.62179 21.3316 5.27227 20.842C4.92308 20.3524 4.43013 19.9835 3.86181 19.7861C4.31254 16.695 5.52663 13.7647 7.39427 11.2608C8.12046 11.618 8.96258 11.6542 9.71658 11.3606C10.4703 11.0674 11.0667 10.4712 11.36 9.71724C11.6535 8.96323 11.6173 8.12113 11.2601 7.39492C13.7638 5.52798 16.6933 4.31423 19.7837 3.86349C20.1004 4.75219 20.8306 5.43018 21.7401 5.68085C22.6493 5.93119 23.6238 5.72274 24.3507 5.12155C25.0779 4.52069 25.4659 3.60317 25.3912 2.66283C25.3165 1.72249 24.7877 0.877984 23.975 0.399451C23.162 -0.0787556 22.1667 -0.130701 21.3085 0.260378C20.4503 0.651792 19.8367 1.43698 19.6644 2.36419C16.2584 2.84373 13.0302 4.18155 10.2825 6.25122C9.53154 5.73849 8.58313 5.60713 7.72095 5.89667C6.85868 6.18654 6.1818 6.86351 5.8926 7.72569C5.60306 8.58831 5.73477 9.53628 6.24782 10.2876C4.1785 13.0339 2.84104 16.261 2.36148 19.6661C1.63529 19.8048 0.989197 20.215 0.554845 20.8132C0.120202 21.4114 -0.069804 22.1526 0.02302 22.8859C0.115844 23.6194 0.484807 24.29 1.05446 24.7608C1.62416 25.232 2.35237 25.4682 3.08999 25.4213C3.82791 25.3747 4.52027 25.0486 5.02591 24.5094C5.53159 23.9702 5.81309 23.2585 5.81276 22.5192L5.81281 22.5193ZM22.5168 1.50093C22.8898 1.50093 23.2477 1.64906 23.5115 1.91279C23.7752 2.17652 23.9233 2.53409 23.9233 2.90709C23.9233 3.28008 23.7752 3.63797 23.5115 3.90173C23.2478 4.16549 22.8902 4.31392 22.5172 4.31392C22.1442 4.31392 21.7863 4.1658 21.5225 3.90206C21.2588 3.63833 21.1107 3.28076 21.1104 2.90777C21.1107 2.53478 21.2591 2.17722 21.5229 1.91347C21.7863 1.64974 22.1439 1.50128 22.5168 1.50094L22.5168 1.50093ZM7.65471 7.65735C7.96369 7.34837 8.399 7.20059 8.83234 7.25789C9.26564 7.31486 9.64767 7.57022 9.86618 7.9489C10.0847 8.32725 10.1145 8.78602 9.94728 9.1895C9.78006 9.59331 9.43455 9.89659 9.01261 10.0095C8.59036 10.1228 8.13962 10.0333 7.79277 9.76724C7.44592 9.50115 7.24284 9.08897 7.24251 8.65198C7.24184 8.27866 7.3903 7.92076 7.6547 7.65734L7.65471 7.65735ZM1.4983 22.5195C1.4983 22.1465 1.64675 21.7889 1.91049 21.5252C2.17422 21.2614 2.53179 21.1133 2.90513 21.1133C3.27811 21.1133 3.63568 21.2618 3.89943 21.5255C4.16316 21.7893 4.31128 22.1468 4.31128 22.5198C4.31128 22.8928 4.16283 23.2507 3.89909 23.5145C3.63536 23.7782 3.27779 23.9263 2.90479 23.9263C2.53181 23.9256 2.17425 23.7775 1.9105 23.5138C1.6471 23.2501 1.49864 22.8925 1.4983 22.5195L1.4983 22.5195Z" fill="white"/>
<path d="M34.3284 34.3306C33.8998 34.7546 33.6156 35.3028 33.5161 35.8973C33.4162 36.4918 33.506 37.1027 33.7731 37.6433C31.2695 39.5106 28.3399 40.724 25.2495 41.1747C24.9871 40.4107 24.4168 39.7914 23.6772 39.467C22.9376 39.1426 22.0958 39.1426 21.3562 39.467C20.6162 39.7911 20.0459 40.4103 19.7835 41.174C16.6927 40.724 13.7631 39.5102 11.2601 37.6426C11.614 36.9164 11.6479 36.075 11.3536 35.3226C11.0594 34.5703 10.4636 33.9755 9.71059 33.6819C8.95793 33.3887 8.1168 33.4239 7.39094 33.7787C5.92282 31.8197 4.8538 29.5912 4.24556 27.2199C4.14301 26.8181 3.73384 26.5758 3.33233 26.6787C2.93053 26.7816 2.68858 27.1904 2.79112 27.5922C3.45599 30.1846 4.62993 32.6192 6.24517 34.7533C5.73311 35.5049 5.60275 36.4529 5.89263 37.3145C6.18283 38.1764 6.85973 38.8527 7.72165 39.1419C8.58392 39.4308 9.53164 39.2994 10.2826 38.7867C13.0296 40.857 16.258 42.1948 19.6646 42.674C19.8331 43.5674 20.4105 44.3305 21.2245 44.7352C22.0385 45.14 22.9953 45.14 23.8096 44.7355C24.6236 44.3307 25.2014 43.568 25.37 42.6746C28.7761 42.1947 32.0046 40.8573 34.7519 38.7876C35.3631 39.2032 36.1098 39.37 36.84 39.2544C37.5699 39.1385 38.2284 38.7491 38.6815 38.165C39.1345 37.5809 39.3477 36.846 39.278 36.1101C39.2083 35.3745 38.8607 34.6928 38.3061 34.2039C37.7515 33.7153 37.0314 33.4566 36.2928 33.4801C35.5538 33.5035 34.8518 33.8078 34.3293 34.3309L34.3284 34.3306ZM7.65481 37.3809C7.39108 37.1171 7.24262 36.7596 7.24262 36.3866C7.24262 36.0136 7.39075 35.6557 7.65448 35.3919C7.91855 35.1282 8.27612 34.9801 8.64912 34.9801C9.02211 34.9801 9.38 35.1282 9.64376 35.3919C9.9075 35.6557 10.0556 36.0136 10.0556 36.3866C10.0556 36.7596 9.90716 37.1171 9.64343 37.3809C9.38103 37.647 9.02279 37.7964 8.64913 37.7964C8.27548 37.7964 7.91724 37.647 7.65483 37.3809H7.65481ZM22.517 43.5373C22.144 43.5373 21.7861 43.3892 21.5223 43.1254C21.2586 42.8617 21.1105 42.5041 21.1105 42.1311C21.1105 41.7581 21.2586 41.4002 21.5223 41.1365C21.786 40.8727 22.1436 40.7243 22.5166 40.7243C22.8896 40.7243 23.2475 40.8724 23.5112 41.1361C23.775 41.3999 23.9231 41.7575 23.9234 42.1304C23.9231 42.5034 23.7746 42.861 23.5109 43.1247C23.2475 43.3885 22.8899 43.5369 22.517 43.5373L22.517 43.5373ZM37.3791 37.3809C37.0701 37.6898 36.6348 37.8376 36.2015 37.7803C35.7682 37.7234 35.3861 37.468 35.1676 37.0893C34.9491 36.711 34.9193 36.2522 35.0865 35.8487C35.2537 35.4449 35.5992 35.1416 36.0212 35.0287C36.4434 34.9154 36.8942 35.0049 37.241 35.271C37.5879 35.5371 37.791 35.9492 37.7913 36.3862C37.7913 36.7592 37.6428 37.1171 37.3791 37.3809L37.3791 37.3809Z" fill="white"/>
<path d="M45.0367 22.5193C45.0354 21.843 44.7988 21.1885 44.3675 20.6681C43.9362 20.1473 43.337 19.7931 42.6728 19.6661C42.1933 16.261 40.8561 13.0332 38.7868 10.2867C39.2989 9.53609 39.4299 8.58941 39.1414 7.72783C38.8532 6.86624 38.178 6.18928 37.3173 5.89845C36.4564 5.60758 35.5091 5.73626 34.757 6.2463C32.6334 4.50169 30.1374 3.26779 27.4619 2.63947C27.2676 2.59624 27.0638 2.63209 26.8959 2.73933C26.7277 2.84623 26.6091 3.01547 26.5658 3.20984C26.476 3.61499 26.7314 4.01612 27.1365 4.1059C29.5705 4.68196 31.8416 5.80393 33.7778 7.38734C33.4176 8.1132 33.379 8.95703 33.6713 9.71241C33.9638 10.4681 34.5599 11.0662 35.3146 11.3605C36.0693 11.6551 36.9131 11.6189 37.64 11.261C39.5078 13.765 40.722 16.6952 41.1724 19.7863C40.4077 20.049 39.788 20.6197 39.464 21.3603C39.1396 22.1009 39.1406 22.9438 39.4663 23.6837C39.7917 24.4236 40.4127 24.9933 41.1778 25.2544C40.904 27.7071 40.0702 30.0639 38.7412 32.143C38.519 32.4929 38.6225 32.9567 38.9724 33.1788C39.0924 33.2556 39.2318 33.2965 39.3742 33.2961C39.6312 33.2965 39.8708 33.1651 40.0086 32.948C41.464 30.6591 42.3768 28.0677 42.677 25.372C43.3402 25.2443 43.9381 24.8898 44.3687 24.3693C44.7993 23.8489 45.0353 23.1947 45.0366 22.5195L45.0367 22.5193ZM35.3906 9.64573C35.1265 9.382 34.9784 9.02443 34.9784 8.65143C34.9784 8.27845 35.1265 7.92055 35.3902 7.65679C35.654 7.39306 36.0119 7.24493 36.3849 7.24493C36.7579 7.24493 37.1158 7.39306 37.3795 7.65679C37.6433 7.92053 37.7914 8.27843 37.7914 8.65143C37.7914 9.02442 37.6429 9.38198 37.3792 9.64573C37.1168 9.91182 36.7586 10.0616 36.3849 10.0616C36.0112 10.0616 35.653 9.91182 35.3906 9.64573H35.3906ZM42.1291 23.9262C41.7561 23.9262 41.3982 23.7781 41.1344 23.5144C40.8704 23.2506 40.7222 22.8927 40.7219 22.5197C40.7219 22.1464 40.87 21.7888 41.1341 21.5247C41.3978 21.261 41.7554 21.1125 42.1287 21.1125C42.5017 21.1125 42.8596 21.2607 43.1234 21.5247C43.3874 21.7885 43.5356 22.1464 43.5356 22.5194C43.5352 22.8924 43.3868 23.2499 43.1234 23.5137C42.8596 23.7774 42.5021 23.9255 42.1291 23.9262L42.1291 23.9262Z" fill="white"/>
<path d="M22.2359 11.6086L12.2045 15.6464C11.9204 15.761 11.7344 16.0364 11.7344 16.3427V28.5514C11.7344 28.854 11.916 29.1271 12.1952 29.2441L22.1922 33.4266C22.2921 33.4648 22.3983 33.4846 22.5052 33.4846C22.6044 33.4846 22.7022 33.4648 22.7937 33.4266L32.8371 29.2441C33.1165 29.1275 33.2992 28.8543 33.2992 28.5514V16.3427C33.2992 16.0364 33.1132 15.761 32.829 15.6464L22.7977 11.6086C22.6174 11.5369 22.417 11.5369 22.2367 11.6086H22.2359ZM13.2357 16.8501L22.5164 13.1143L30.7432 16.4256L22.5051 20.6547L15.5605 17.0804C15.1916 16.8907 14.7388 17.0358 14.5492 17.4048C14.3595 17.7734 14.5049 18.2262 14.8735 18.4158L21.7541 21.9566V31.6156L13.2355 28.051L13.2357 16.8501ZM23.2559 31.6076L23.2563 21.9563L31.7983 17.5714V28.0505L23.2559 31.6076Z" fill="white"/>
</svg>
