<svg width="53" height="38" viewBox="0 0 53 38" fill="none" xmlns="http://www.w3.org/2000/svg">
<path fill-rule="evenodd" clip-rule="evenodd" d="M26.7233 37.7194C26.6092 37.7194 26.4809 37.691 26.3668 37.6337C26.3243 37.6053 25.1684 37.0629 23.5136 35.8933C21.545 34.5239 19.7478 32.926 18.164 31.1713C15.9815 28.7465 14.2837 26.05 13.1141 23.1831C11.6733 19.6166 11.0457 15.7651 11.2596 11.7139C11.2738 11.3286 11.5734 11.0006 11.9587 10.9438C13.9845 10.6442 15.9531 10.0738 17.8218 9.26062C19.3483 8.6046 20.8032 7.77722 22.1726 6.79275C24.4265 5.1953 25.7391 3.68307 26.0814 3.25507L26.0956 3.24087C26.1098 3.22667 26.124 3.21248 26.1382 3.19828C26.4662 2.87027 26.9797 2.87027 27.2935 3.19828C27.5932 3.49789 27.6074 3.98306 27.3361 4.31107C26.9508 4.78203 25.5242 6.42212 23.1136 8.13413C21.6587 9.17545 20.0896 10.0601 18.4774 10.7587C16.6802 11.5434 14.7969 12.1137 12.8714 12.456C12.7716 16.0225 13.3566 19.4172 14.6261 22.5558C15.7247 25.2519 17.3079 27.7771 19.3621 30.0595C23.0569 34.1679 26.9515 36.0935 27.0509 36.1364H27.0651C27.4788 36.3362 27.6359 36.8355 27.4362 37.235C27.3084 37.5626 27.023 37.7192 26.7234 37.7192L26.7233 37.7194Z" fill="white"/>
<path fill-rule="evenodd" clip-rule="evenodd" d="M26.7235 37.7195C26.4239 37.7195 26.1243 37.5482 25.9818 37.2485C25.782 36.8349 25.9534 36.3497 26.3671 36.15C26.4097 36.1358 30.3183 34.224 34.0558 30.0871C36.1101 27.8047 37.7075 25.2796 38.8061 22.5835C40.0897 19.4307 40.6747 16.036 40.5748 12.4695C38.6489 12.1273 36.7659 11.5565 34.9688 10.7722C33.3424 10.0589 31.7876 9.17471 30.3326 8.14764C27.922 6.43563 26.4812 4.7809 26.1101 4.32458C25.8247 3.98236 25.8678 3.45461 26.2242 3.16918C26.5664 2.88377 27.0942 2.92685 27.3796 3.28326C27.7218 3.71114 29.0343 5.2092 31.2884 6.82094C32.6577 7.79078 34.1127 8.61817 35.6392 9.28881C37.5079 10.102 39.4906 10.6723 41.5023 10.9862C41.8876 11.0434 42.1872 11.3714 42.2014 11.7562C42.4153 15.8074 41.7877 19.6594 40.3469 23.2254C39.1773 26.0928 37.4794 28.7889 35.297 31.2137C33.7137 32.9825 31.9159 34.5658 29.9474 35.9356C28.2926 37.091 27.1514 37.6476 27.1084 37.6618C26.9522 37.7054 26.8382 37.7196 26.7236 37.7196L26.7235 37.7195Z" fill="white"/>
<path fill-rule="evenodd" clip-rule="evenodd" d="M32.2864 28.5041H21.1311C20.6748 28.5041 20.3037 28.133 20.3037 27.6767V18.3327C20.3037 17.8765 20.6748 17.5054 21.1311 17.5054H32.2864C32.7427 17.5054 33.1138 17.8765 33.1138 18.3327V27.662C33.1138 28.1335 32.7432 28.5041 32.2864 28.5041V28.5041ZM21.9585 26.8635H31.4591V19.1601H21.9585V26.8635Z" fill="white"/>
<path fill-rule="evenodd" clip-rule="evenodd" d="M29.9759 19.1605H23.4426C22.9863 19.1605 22.6152 18.7894 22.6152 18.3331V14.8239C22.6152 13.3689 23.8137 12.1704 25.2687 12.1704H28.1361C29.5911 12.1704 30.7896 13.3689 30.7896 14.8239V18.3331C30.8033 18.8036 30.4322 19.1605 29.976 19.1605H29.9759ZM24.27 17.5199H29.1486V14.8238C29.1486 14.2677 28.6924 13.8109 28.1357 13.8109H25.2683C24.7121 13.8109 24.2554 14.2672 24.2554 14.8238L24.27 17.5199Z" fill="white"/>
<path fill-rule="evenodd" clip-rule="evenodd" d="M26.7225 23.9394C25.5241 23.9394 24.54 22.9549 24.54 21.757C24.54 20.5585 25.5246 19.5745 26.7225 19.5745C27.921 19.5745 28.905 20.559 28.905 21.757C28.9055 22.9549 27.921 23.9394 26.7225 23.9394ZM26.7225 21.2004C26.4229 21.2004 26.1806 21.4427 26.1806 21.7423C26.1806 22.0419 26.4229 22.2843 26.7225 22.2843C27.0221 22.2843 27.2645 22.0419 27.2645 21.7423C27.265 21.4432 27.0079 21.2004 26.7225 21.2004Z" fill="white"/>
<path fill-rule="evenodd" clip-rule="evenodd" d="M26.7239 26.4635C26.2676 26.4635 25.8965 26.0924 25.8965 25.6361V23.0967C25.8965 22.6404 26.2676 22.2693 26.7239 22.2693C27.1801 22.2693 27.5512 22.6404 27.5512 23.0967V25.6361C27.537 26.0929 27.1664 26.4635 26.7239 26.4635Z" fill="white"/>
<path fill-rule="evenodd" clip-rule="evenodd" d="M49.0056 14.8806L41.4162 14.8664C40.96 14.8664 40.5889 14.4953 40.5889 14.039C40.5889 13.5828 40.96 13.2117 41.4162 13.2117L49.0056 13.2259C49.4619 13.2259 49.833 13.597 49.833 14.0532C49.833 14.51 49.4624 14.8806 49.0056 14.8806Z" fill="white"/>
<path fill-rule="evenodd" clip-rule="evenodd" d="M50.6035 16.4647C49.2767 16.4647 48.207 15.3803 48.207 14.0683C48.207 12.7416 49.2914 11.6719 50.6035 11.6719C51.916 11.6719 52.9999 12.7563 52.9999 14.0683C53.0141 15.3804 51.9302 16.4647 50.6035 16.4647ZM50.6035 13.2977C50.1898 13.2977 49.8476 13.6399 49.8476 14.0535C49.8476 14.4672 50.1898 14.8094 50.6035 14.8094C51.0172 14.8094 51.3594 14.4672 51.3594 14.0535C51.3594 13.6399 51.0313 13.2977 50.6035 13.2977Z" fill="white"/>
<path fill-rule="evenodd" clip-rule="evenodd" d="M49.0056 21.6985L40.3039 21.6843C39.8477 21.6843 39.4766 21.3132 39.4766 20.8569C39.4766 20.4006 39.8477 20.0295 40.3039 20.0295L49.0056 20.0437C49.4619 20.0437 49.833 20.4148 49.833 20.8711C49.833 21.3279 49.4624 21.6985 49.0056 21.6985Z" fill="white"/>
<path fill-rule="evenodd" clip-rule="evenodd" d="M50.6035 23.2826C49.2767 23.2826 48.207 22.1982 48.207 20.8862C48.207 19.5736 49.2914 18.4897 50.6035 18.4897C51.916 18.4897 52.9999 19.5741 52.9999 20.8862C52.9999 22.1982 51.9302 23.2826 50.6035 23.2826ZM50.6035 20.1155C50.1898 20.1155 49.8476 20.4577 49.8476 20.8714C49.8476 21.2851 50.1898 21.6273 50.6035 21.6273C51.0172 21.6273 51.3594 21.2851 51.3594 20.8714C51.3594 20.4577 51.0313 20.1155 50.6035 20.1155Z" fill="white"/>
<path fill-rule="evenodd" clip-rule="evenodd" d="M45.1973 12.5982H41.3459C40.8897 12.5982 40.5186 12.2271 40.5186 11.7708C40.5186 11.3145 40.8896 10.9434 41.3459 10.9434H44.37V4.4669C44.37 4.01063 44.7411 3.63953 45.1974 3.63953C45.6537 3.63953 46.0248 4.01061 46.0248 4.4669V11.7566C46.0248 12.2271 45.6542 12.5982 45.1974 12.5982L45.1973 12.5982Z" fill="white"/>
<path fill-rule="evenodd" clip-rule="evenodd" d="M45.1962 5.26528C43.8695 5.26528 42.7998 4.18088 42.7998 2.86884C42.7998 1.55626 43.8842 0.472412 45.1962 0.472412C46.5088 0.472412 47.5927 1.5568 47.5927 2.86884C47.5932 4.18142 46.523 5.26528 45.1962 5.26528ZM45.1962 2.11248C44.7825 2.11248 44.4403 2.45469 44.4403 2.86837C44.4403 3.28206 44.7826 3.62426 45.1962 3.62426C45.6099 3.62426 45.9521 3.28204 45.9521 2.86837C45.9526 2.45517 45.6246 2.11248 45.1962 2.11248Z" fill="white"/>
<path fill-rule="evenodd" clip-rule="evenodd" d="M45.1963 31.2422C44.74 31.2422 44.3689 30.8711 44.3689 30.4149V23.9526H39.5188C39.0625 23.9526 38.6914 23.5815 38.6914 23.1252C38.6914 22.669 39.0625 22.2979 39.5188 22.2979H45.1963C45.6526 22.2979 46.0237 22.6689 46.0237 23.1252V30.4149C46.0237 30.8712 45.6531 31.2423 45.1963 31.2423L45.1963 31.2422Z" fill="white"/>
<path fill-rule="evenodd" clip-rule="evenodd" d="M45.1962 34.4384C43.8695 34.4384 42.7998 33.354 42.7998 32.0419C42.7998 30.7294 43.8842 29.6455 45.1962 29.6455C46.5088 29.6455 47.5927 30.7299 47.5927 32.0419C47.5932 33.354 46.523 34.4384 45.1962 34.4384ZM45.1962 31.2713C44.7825 31.2713 44.4403 31.6135 44.4403 32.0272C44.4403 32.4408 44.7826 32.7831 45.1962 32.7831C45.6099 32.7831 45.9521 32.4408 45.9521 32.0272C45.9526 31.6135 45.6246 31.2713 45.1962 31.2713Z" fill="white"/>
<path fill-rule="evenodd" clip-rule="evenodd" d="M46.7651 19.4314L40.8878 19.4172C40.4315 19.4172 40.0604 19.0461 40.0746 18.5898C40.0746 18.1335 40.4457 17.7766 40.902 17.7766L46.7793 17.7908C47.2356 17.7908 47.6067 18.1619 47.5925 18.6182C47.5925 19.0607 47.2214 19.4314 46.7651 19.4314V19.4314Z" fill="white"/>
<path fill-rule="evenodd" clip-rule="evenodd" d="M46.7656 17.1491L41.2452 17.1349C40.7889 17.1349 40.4178 16.7639 40.432 16.3076C40.432 15.8513 40.8031 15.4944 41.2594 15.4944L46.7798 15.5086C47.2361 15.5086 47.6072 15.8797 47.593 16.336C47.593 16.7785 47.2219 17.1491 46.7656 17.1491V17.1491Z" fill="white"/>
<path fill-rule="evenodd" clip-rule="evenodd" d="M4.42699 14.8806C3.97071 14.8806 3.59961 14.5095 3.59961 14.0532C3.59961 13.597 3.9707 13.2259 4.42699 13.2259L12.0447 13.2117C12.5009 13.2117 12.872 13.5828 12.872 14.039C12.872 14.4953 12.5009 14.8664 12.0447 14.8664L4.42699 14.8806Z" fill="white"/>
<path fill-rule="evenodd" clip-rule="evenodd" d="M2.82905 16.4647C1.50231 16.4647 0.432617 15.3803 0.432617 14.0683C0.432617 12.7416 1.51701 11.6719 2.82905 11.6719C4.14163 11.6719 5.22548 12.7563 5.22548 14.0683C5.22548 15.3803 4.15577 16.4647 2.82905 16.4647ZM2.82905 13.2977C2.41536 13.2977 2.07316 13.6399 2.07316 14.0535C2.07316 14.4672 2.41537 14.8094 2.82905 14.8094C3.24274 14.8094 3.58494 14.4672 3.58494 14.0535C3.58494 13.6399 3.24272 13.2977 2.82905 13.2977Z" fill="white"/>
<path fill-rule="evenodd" clip-rule="evenodd" d="M4.42699 21.6985C3.97071 21.6985 3.59961 21.3274 3.59961 20.8711C3.59961 20.4148 3.9707 20.0437 4.42699 20.0437L13.1286 20.0295C13.5849 20.0295 13.956 20.4006 13.956 20.8569C13.956 21.3132 13.5849 21.6843 13.1286 21.6843L4.42699 21.6985Z" fill="white"/>
<path fill-rule="evenodd" clip-rule="evenodd" d="M2.82905 23.2826C1.50231 23.2826 0.432617 22.1982 0.432617 20.8862C0.432617 19.5736 1.51701 18.4897 2.82905 18.4897C4.14163 18.4897 5.22548 19.5741 5.22548 20.8862C5.22548 22.1982 4.15577 23.2826 2.82905 23.2826ZM2.82905 20.1155C2.41536 20.1155 2.07316 20.4577 2.07316 20.8714C2.07316 21.2851 2.41537 21.6273 2.82905 21.6273C3.24274 21.6273 3.58494 21.2851 3.58494 20.8714C3.58494 20.4577 3.24272 20.1155 2.82905 20.1155Z" fill="white"/>
<path fill-rule="evenodd" clip-rule="evenodd" d="M12.0879 12.5981H8.23656C7.78028 12.5981 7.40918 12.227 7.40918 11.7707V4.48106C7.40918 4.02479 7.78027 3.65369 8.23656 3.65369C8.69285 3.65369 9.06393 4.02477 9.06393 4.48106V10.9433H12.088C12.5443 10.9433 12.9154 11.3144 12.9154 11.7707C12.9154 12.227 12.5443 12.5981 12.088 12.5981L12.0879 12.5981Z" fill="white"/>
<path fill-rule="evenodd" clip-rule="evenodd" d="M8.2353 5.26528C6.90856 5.26528 5.83887 4.18088 5.83887 2.86884C5.83887 1.55626 6.92326 0.472412 8.2353 0.472412C9.54788 0.472412 10.6317 1.5568 10.6317 2.86884C10.6322 4.18142 9.56202 5.26528 8.2353 5.26528ZM8.2353 2.11248C7.82161 2.11248 7.47941 2.45469 7.47941 2.86837C7.47941 3.28206 7.82162 3.62426 8.2353 3.62426C8.64897 3.62426 8.99119 3.28204 8.99119 2.86837C8.99168 2.45517 8.64897 2.11248 8.2353 2.11248Z" fill="white"/>
<path fill-rule="evenodd" clip-rule="evenodd" d="M8.23656 31.271C7.78028 31.271 7.40918 30.8999 7.40918 30.4436V23.1255C7.40918 22.6692 7.78027 22.2981 8.23656 22.2981H13.9424C14.3987 22.2981 14.7698 22.6692 14.7698 23.1255C14.7698 23.5817 14.3987 23.9529 13.9424 23.9529H9.0497V30.4577C9.06389 30.8998 8.69328 31.2709 8.23652 31.2709L8.23656 31.271Z" fill="white"/>
<path fill-rule="evenodd" clip-rule="evenodd" d="M8.2353 34.4384C6.90856 34.4384 5.83887 33.354 5.83887 32.0419C5.83887 30.7294 6.92326 29.6455 8.2353 29.6455C9.54788 29.6455 10.6317 30.7299 10.6317 32.0419C10.6322 33.354 9.56202 34.4384 8.2353 34.4384ZM8.2353 31.2713C7.82161 31.2713 7.47941 31.6135 7.47941 32.0272C7.47941 32.4408 7.82162 32.7831 8.2353 32.7831C8.64897 32.7831 8.99119 32.4408 8.99119 32.0272C8.99168 31.6135 8.64897 31.2713 8.2353 31.2713Z" fill="white"/>
<path fill-rule="evenodd" clip-rule="evenodd" d="M6.66624 19.4314C6.20997 19.4314 5.83887 19.0603 5.83887 18.6182C5.83887 18.1619 6.20996 17.7908 6.65204 17.7908L12.5009 17.7766C12.9572 17.7766 13.3283 18.1477 13.3283 18.5898C13.3283 19.0461 12.9572 19.4172 12.5151 19.4172L6.66624 19.4314Z" fill="white"/>
<path fill-rule="evenodd" clip-rule="evenodd" d="M6.66624 17.1491C6.20997 17.1491 5.83887 16.778 5.83887 16.336C5.83887 15.8797 6.20996 15.5086 6.65204 15.5086L12.1724 15.4944C12.6287 15.4944 12.9998 15.8655 12.9998 16.3076C12.9998 16.7638 12.6287 17.1349 12.1866 17.1349L6.66624 17.1491Z" fill="white"/>
</svg>
