<svg width="53" height="53" viewBox="0 0 53 53" fill="none" xmlns="http://www.w3.org/2000/svg">
<path d="M48.3591 24.1334C47.8889 24.138 47.4886 23.7936 47.4229 23.3281C46.7585 18.7771 44.6431 14.5617 41.3913 11.3085C38.14 8.05511 33.9255 5.93801 29.375 5.27097C29.1267 5.23628 28.9023 5.10422 28.7514 4.90405C28.6002 4.70387 28.535 4.45187 28.5697 4.20364C28.642 3.68669 29.12 3.32646 29.637 3.39876C34.5937 4.1209 39.1853 6.42436 42.7275 9.96658C46.2697 13.5088 48.5732 18.0998 49.2953 23.0571C49.3676 23.5686 49.0111 24.0425 48.4996 24.1148L48.3591 24.1334Z" fill="white"/>
<path d="M23.1787 49.314H23.0474C18.0907 48.5918 13.4992 46.2884 9.95694 42.7462C6.41471 39.2039 4.11125 34.6125 3.38911 29.6557C3.31682 29.1387 3.67705 28.6606 4.19441 28.5883C4.71136 28.516 5.18902 28.8763 5.26132 29.3936C5.92579 33.9446 8.04118 38.16 11.2929 41.4132C14.5443 44.6666 18.7588 46.7837 23.3093 47.4507C23.8267 47.4871 24.2162 47.9355 24.1802 48.4524C24.1439 48.9694 23.6955 49.3593 23.1785 49.3229L23.1787 49.314Z" fill="white"/>
<path d="M29.506 49.3141C28.989 49.35 28.5406 48.9605 28.5043 48.4436C28.4683 47.9262 28.8578 47.4778 29.3752 47.4419C33.9261 46.7774 38.1415 44.662 41.3948 41.4103C44.6481 38.1589 46.7652 33.9444 47.4323 29.3939C47.5046 28.8765 47.9826 28.5163 48.4996 28.5886C49.0165 28.6609 49.3768 29.139 49.3045 29.6559C48.5823 34.6127 46.2789 39.2042 42.7366 42.7464C39.1944 46.2886 34.6034 48.5921 29.6462 49.3142L29.506 49.3141Z" fill="white"/>
<path d="M4.32547 24.1334H4.19466C3.68272 24.0607 3.32667 23.5872 3.39897 23.0757C4.12069 18.1185 6.42457 13.527 9.96679 9.98522C13.5085 6.44311 18.1 4.13911 23.0573 3.4174C23.5742 3.34469 24.0519 3.70534 24.1242 4.22228C24.1965 4.73923 23.8363 5.2169 23.3193 5.28961C18.7675 5.95157 14.5513 8.06455 11.2965 11.3145C8.04144 14.5645 5.92189 18.7774 5.25281 23.3277C5.18762 23.7894 4.79228 24.133 4.3259 24.133L4.32547 24.1334Z" fill="white"/>
<path d="M26.3419 8.23783C25.2491 8.24034 24.1998 7.80823 23.4258 7.03673C22.6514 6.26528 22.2156 5.21801 22.2139 4.12518C22.2122 3.03191 22.6447 1.98337 23.4166 1.20945C24.1889 0.435905 25.2366 0.000857074 26.3294 1.20657e-06C27.4223 -0.000834548 28.4708 0.432536 29.2439 1.20528C30.017 1.97757 30.4516 3.02571 30.4516 4.11886C30.4516 5.20956 30.0186 6.25564 29.2485 7.02785C28.4778 7.80014 27.4326 8.23516 26.3419 8.23773V8.23783ZM26.3419 1.88152C25.7452 1.87901 25.1718 2.11429 24.7484 2.53512C24.3251 2.95595 24.0869 3.52806 24.086 4.12522C24.0852 4.72198 24.3217 5.29455 24.7438 5.7166C25.1659 6.13868 25.7388 6.37564 26.3356 6.37479C26.9324 6.37395 27.5045 6.13575 27.9257 5.71241C28.3465 5.28908 28.5818 4.71571 28.5793 4.1189C28.5793 3.52547 28.3436 2.95631 27.924 2.53672C27.5045 2.11714 26.9353 1.88144 26.3419 1.88144L26.3419 1.88152Z" fill="white"/>
<path d="M4.10047 30.4699C3.01095 30.4674 1.96711 30.0324 1.19811 29.2605C0.429586 28.4886 -0.00170666 27.4435 5.07581e-06 26.3539C0.00167659 25.2644 0.435877 24.2206 1.20731 23.4512C1.97834 22.6818 3.02357 22.2497 4.11255 22.2505C5.20207 22.2513 6.24634 22.6847 7.01662 23.4553C7.7869 24.226 8.21933 25.2707 8.21933 26.3602C8.21682 27.4508 7.78179 28.4961 7.00945 29.2667C6.23716 30.0369 5.19116 30.4698 4.10047 30.4698V30.4699ZM4.10047 24.1232V24.1228C3.50746 24.1253 2.93991 24.3631 2.52203 24.7839C2.10455 25.2044 1.87052 25.7735 1.87219 26.3665C1.87386 26.9591 2.11082 27.5271 2.53081 27.9454C2.95122 28.3637 3.51998 28.5986 4.11255 28.5978C4.70556 28.5969 5.27386 28.3608 5.6927 27.9412C6.11186 27.5217 6.34714 26.9533 6.34714 26.3603C6.34714 25.7652 6.11019 25.1948 5.68853 24.7748C5.26686 24.3553 4.69517 24.1204 4.10047 24.1229V24.1232Z" fill="white"/>
<path d="M26.3419 52.712C25.2482 52.7145 24.1989 52.282 23.4245 51.5101C22.6501 50.7378 22.2146 49.6897 22.2139 48.5961C22.213 47.5029 22.6468 46.454 23.4199 45.6808C24.1934 44.9077 25.2424 44.4735 26.3356 44.4744C27.4293 44.4752 28.4774 44.9107 29.2492 45.685C30.0215 46.4594 30.4541 47.5092 30.4515 48.6024C30.449 49.6919 30.0152 50.7355 29.245 51.5056C28.4748 52.2758 27.4309 52.7096 26.3418 52.7121L26.3419 52.712ZM26.3419 46.3557C25.7456 46.3532 25.1726 46.588 24.7493 47.0084C24.3264 47.4284 24.0877 47.9997 24.0861 48.5961C24.0844 49.1924 24.3197 49.7654 24.7405 50.1879C25.1613 50.6104 25.733 50.8482 26.3294 50.849C26.9258 50.8498 27.4983 50.6137 27.9199 50.1921C28.342 49.7708 28.5794 49.1987 28.5794 48.6024C28.5794 48.0081 28.3437 47.4381 27.9245 47.0173C27.5054 46.5961 26.9362 46.3583 26.3419 46.3558V46.3557Z" fill="white"/>
<path d="M48.5848 30.4701C47.4949 30.4701 46.4498 30.0371 45.6791 29.2661C44.9085 28.4955 44.4756 27.4502 44.4756 26.3604C44.4756 25.2706 44.9085 24.2253 45.6791 23.4547C46.4498 22.6837 47.495 22.2507 48.5848 22.2507C49.6747 22.2507 50.7203 22.6837 51.4909 23.4547C52.2615 24.2253 52.6945 25.2706 52.6945 26.3604C52.692 27.4495 52.2582 28.4934 51.488 29.2636C50.7178 30.0338 49.6743 30.4676 48.5848 30.4701ZM48.5848 24.1234V24.123C47.9918 24.123 47.4227 24.3586 47.0031 24.7782C46.5835 25.1978 46.3478 25.767 46.3478 26.3604C46.3478 26.9538 46.5835 27.523 47.0031 27.9426C47.4226 28.3622 47.9918 28.5979 48.5848 28.5979C49.1782 28.5979 49.7474 28.3622 50.167 27.9426C50.5866 27.523 50.8223 26.9538 50.8223 26.3604C50.8198 25.7678 50.5832 25.2003 50.1641 24.7811C49.7453 24.362 49.1774 24.1254 48.5848 24.1229L48.5848 24.1234Z" fill="white"/>
<path d="M24.6668 41.5354C24.5343 41.535 24.4035 41.5062 24.2831 41.4514C23.8966 41.2788 23.6738 40.868 23.7403 40.4497L25.238 31.4819H12.9371C12.5773 31.4807 12.2496 31.2734 12.0946 30.9483C11.9404 30.6219 11.9876 30.2357 12.2162 29.9562L27.2784 11.5336C27.5467 11.203 28.0047 11.0956 28.3925 11.2716C28.8025 11.4454 29.0332 11.8838 28.9446 12.3201L27.4468 21.2879H39.7478C40.1076 21.2891 40.4352 21.4964 40.5903 21.8215C40.7445 22.1479 40.6972 22.5341 40.4686 22.8136L25.4064 41.1902C25.2259 41.4125 24.9534 41.5404 24.6668 41.5362V41.5354ZM14.9129 29.61H26.343C26.6213 29.6058 26.8871 29.7261 27.068 29.9376C27.249 30.1495 27.3263 30.4307 27.2791 30.7053L26.1746 37.258L37.7823 23.0849H26.3425C26.0642 23.089 25.7984 22.9687 25.6175 22.7572C25.4365 22.5454 25.3592 22.2641 25.4064 21.9895L26.5109 15.4368L14.9129 29.61Z" fill="white"/>
</svg>
