<svg width="43" height="39" viewBox="0 0 43 39" fill="none" xmlns="http://www.w3.org/2000/svg">
<path d="M41.3137 6.68406H40.6955C40.5642 6.25143 40.3909 5.83279 40.1776 5.43423L40.6153 4.99653C40.8883 4.70383 41.0342 4.31446 41.021 3.91436C41.0079 3.51425 40.8366 3.13534 40.5451 2.86113L39.9135 2.2295C39.6387 1.93859 39.2601 1.76792 38.8603 1.7548C38.4602 1.74167 38.0714 1.88728 37.7781 2.15939L37.3404 2.59709C36.9418 2.38376 36.5232 2.21041 36.0906 2.07913V1.46092C36.0766 1.06081 35.9044 0.68221 35.612 0.408306C35.3196 0.134708 34.9305 -0.0117913 34.5301 0.000742874H33.641C33.2406 -0.0117882 32.8515 0.134708 32.5591 0.408306C32.2667 0.682202 32.0946 1.06083 32.0806 1.46092V2.07913C31.6479 2.21011 31.2291 2.38347 30.8307 2.59709L30.4097 2.15939C30.1164 1.88728 29.7277 1.74167 29.3276 1.7548C28.9277 1.76793 28.5492 1.93859 28.2743 2.2295L27.646 2.85786H27.6463C27.3464 3.13056 27.168 3.51187 27.1513 3.91673C27.1343 4.32161 27.2799 4.71637 27.5559 5.01319L27.9936 5.45089C27.7811 5.84413 27.6078 6.25709 27.4756 6.68406H26.8574C26.4573 6.69809 26.0787 6.87024 25.8048 7.16264C25.5312 7.45504 25.3847 7.84411 25.3972 8.24451V9.13366C25.3847 9.53407 25.5312 9.92314 25.8048 10.2155C26.0787 10.5079 26.4573 10.6801 26.8574 10.6941H27.4756C27.6069 11.1267 27.7803 11.5454 27.9936 11.9439L27.5526 12.3849C27.2802 12.6782 27.1349 13.0673 27.148 13.4671C27.1611 13.8669 27.3318 14.2455 27.6227 14.5203L28.2543 15.1519C28.5294 15.442 28.9081 15.612 29.3076 15.6251C29.7074 15.6383 30.0961 15.4936 30.3897 15.2221L30.8274 14.7844C31.2272 14.9968 31.6468 15.1692 32.0806 15.299V15.9172C32.0946 16.3174 32.2667 16.696 32.5591 16.9699C32.8515 17.2435 33.2406 17.39 33.641 17.3774H34.5301C34.9306 17.39 35.3196 17.2435 35.612 16.9699C35.9044 16.696 36.0766 16.3173 36.0906 15.9172V15.299C36.5232 15.1681 36.9419 14.9944 37.3404 14.7811L37.7814 15.2221C38.0756 15.493 38.4646 15.6374 38.8642 15.6237C39.264 15.6099 39.642 15.4393 39.9168 15.1487L40.5451 14.517C40.8361 14.2422 41.0067 13.8636 41.0198 13.4638C41.033 13.0637 40.8874 12.6749 40.6153 12.3816L40.1776 11.9439C40.3909 11.5453 40.5642 11.1267 40.6955 10.6941H41.3137C41.7138 10.6801 42.0924 10.5079 42.3663 10.2155C42.6399 9.92312 42.7864 9.53405 42.7739 9.13365V8.2445C42.7864 7.84409 42.6399 7.45502 42.3663 7.16263C42.0924 6.87024 41.7138 6.69808 41.3137 6.68406H41.3137ZM41.4373 9.13361C41.4373 9.27384 41.357 9.35738 41.3137 9.35738H39.6429L39.5292 9.88191C39.3839 10.5276 39.1246 11.1419 38.7639 11.6966L38.4733 12.1477L39.6563 13.3307C39.6864 13.3608 39.6831 13.4811 39.5861 13.578L38.9578 14.2064C38.8575 14.3034 38.7406 14.3067 38.7104 14.2765L37.5274 13.0902L37.093 13.3674C36.5399 13.7228 35.9276 13.9761 35.2852 14.116L34.7607 14.2297V15.9005C34.7607 15.9441 34.6772 16.0241 34.5369 16.0241H33.6481C33.5079 16.0241 33.4243 15.9438 33.4243 15.9005V14.2297L32.8998 14.116H32.8992C32.252 13.9776 31.6353 13.724 31.0779 13.3674L30.6235 13.0768L29.4438 14.2598C29.4137 14.2899 29.3 14.2932 29.1965 14.1897L28.5717 13.5745C28.4747 13.4775 28.4715 13.3572 28.5016 13.3271L29.6846 12.1441L29.4071 11.6966C29.0521 11.1431 28.7987 10.5311 28.6585 9.88877L28.5317 9.35739H26.8609C26.8173 9.35739 26.7373 9.27384 26.7373 9.13361L26.737 8.24446C26.737 8.10751 26.8173 8.02069 26.8606 8.02069H28.5314L28.6451 7.49258C28.7889 6.84811 29.0467 6.23465 29.4071 5.6815L29.6977 5.22709L28.5147 4.0441C28.4846 4.01396 28.4879 3.897 28.5848 3.79675L29.2132 3.16839C29.3102 3.07143 29.4271 3.06158 29.4605 3.09828L30.6435 4.28127L31.078 4.01065C31.6311 3.6553 32.2434 3.40198 32.8857 3.26205L33.4103 3.14837V1.47753C33.4103 1.43397 33.4938 1.35401 33.634 1.35401H34.5229C34.6631 1.35401 34.7467 1.43427 34.7467 1.47753V3.14837L35.2748 3.26205H35.2751C35.921 3.40109 36.5366 3.6547 37.093 4.01065L37.5442 4.30126L38.7272 3.11827C38.7573 3.08813 38.8742 3.09141 38.9712 3.18838L39.5996 3.82002C39.6965 3.91698 39.6998 4.03395 39.6697 4.06736L38.4867 5.25036L38.7639 5.68149C39.1186 6.23496 39.3722 6.84722 39.5125 7.48928L39.6261 8.01381H41.297C41.3406 8.01381 41.4205 8.09736 41.4205 8.23759L41.4373 9.13361Z" fill="white"/>
<path d="M34.0865 5.14355C33.1461 5.14355 32.2444 5.51711 31.5793 6.18188C30.9146 6.84694 30.541 7.74862 30.541 8.68902C30.541 9.62943 30.9146 10.5311 31.5793 11.1962C32.2444 11.8609 33.1461 12.2345 34.0865 12.2345C35.0269 12.2345 35.9286 11.8609 36.5936 11.1962C37.2584 10.5311 37.632 9.62943 37.632 8.68902C37.632 7.74862 37.2584 6.84694 36.5936 6.18188C35.9286 5.51713 35.0269 5.14355 34.0865 5.14355ZM34.0865 10.8945C33.5005 10.8945 32.9384 10.6618 32.5243 10.2471C32.1098 9.83265 31.8774 9.27055 31.8777 8.68455C31.878 8.09856 32.111 7.53677 32.5258 7.12263C32.9405 6.70849 33.5026 6.47637 34.0886 6.47697C34.6749 6.47756 35.2364 6.71088 35.6502 7.12591C36.0643 7.54064 36.2962 8.10306 36.2953 8.68905C36.2953 9.27475 36.0625 9.83653 35.6484 10.251C35.234 10.6651 34.6722 10.8978 34.0865 10.8978L34.0865 10.8945Z" fill="white"/>
<path d="M1.46093 10.6941H2.07915C2.21043 11.1267 2.38378 11.5454 2.59711 11.9439L2.1594 12.3816C1.88729 12.6749 1.74169 13.0637 1.75482 13.4638C1.76795 13.8636 1.93861 14.2422 2.22951 14.517L2.86115 15.1487C3.13654 15.4387 3.51487 15.6087 3.91437 15.6219C4.31418 15.635 4.70293 15.4903 4.99654 15.2188L5.43424 14.7811C5.83286 14.9944 6.25145 15.1681 6.68407 15.299V15.9173C6.6981 16.3174 6.87025 16.696 7.16265 16.9699C7.45504 17.2435 7.84411 17.39 8.24451 17.3774H9.13367C9.53407 17.39 9.92315 17.2435 10.2155 16.9699C10.5079 16.696 10.6801 16.3173 10.6941 15.9173V15.299C11.1267 15.1681 11.5454 14.9944 11.9439 14.7811L12.3849 15.2221C12.6791 15.493 13.0682 15.6374 13.4677 15.6237C13.8675 15.6099 14.2456 15.4393 14.5203 15.1487L15.1487 14.517C15.4396 14.2422 15.6102 13.8636 15.6234 13.4638C15.6365 13.0637 15.4909 12.6749 15.2188 12.3816L14.7811 11.9439C14.9944 11.5453 15.1678 11.1267 15.299 10.6941H15.9172C16.3174 10.6801 16.696 10.5079 16.9699 10.2155C17.2435 9.92312 17.39 9.53405 17.3774 9.13365V8.2445C17.39 7.84409 17.2435 7.45502 16.9699 7.16263C16.696 6.87024 16.3173 6.69808 15.9172 6.68406H15.299C15.1677 6.25143 14.9944 5.83279 14.7811 5.43423L15.2188 4.99653C15.4918 4.70383 15.6377 4.31446 15.6246 3.91436C15.6114 3.51425 15.4402 3.13534 15.1487 2.86113L14.517 2.2295C14.2422 1.93859 13.8636 1.76792 13.4638 1.7548C13.0637 1.74167 12.6749 1.88728 12.3816 2.15939L11.9439 2.59709C11.5453 2.38376 11.1267 2.21041 10.6941 2.07913V1.46092C10.6801 1.06081 10.5079 0.68221 10.2155 0.408306C9.92313 0.134708 9.53406 -0.0117913 9.13366 0.000742874H8.2445C7.8441 -0.0117883 7.45503 0.134708 7.16264 0.408306C6.87024 0.682202 6.69809 1.06083 6.68406 1.46092V2.07913C6.25143 2.21011 5.83257 2.38347 5.43424 2.59709L5.01325 2.15939C4.71996 1.88728 4.33118 1.74167 3.93107 1.7548C3.53126 1.76793 3.15267 1.93859 2.87785 2.2295L2.2295 2.86113C1.93353 3.13653 1.75988 3.51843 1.74645 3.92268C1.73333 4.32667 1.88191 4.71934 2.15939 5.01318L2.59709 5.45088C2.38466 5.84412 2.2113 6.25709 2.07913 6.68406H1.46092C1.06081 6.69808 0.68221 6.87024 0.408306 7.16263C0.134708 7.45503 -0.0117913 7.8441 0.000742874 8.2445V9.13365C-0.0117882 9.53406 0.134708 9.92313 0.408306 10.2155C0.682202 10.5079 1.06083 10.6801 1.46092 10.6941L1.46093 10.6941ZM1.33741 8.24455C1.33741 8.1076 1.41767 8.02078 1.46093 8.02078H3.13177L3.24545 7.49267C3.39016 6.8482 3.64914 6.23474 4.01079 5.68159L4.3014 5.22718L3.10527 4.05076C3.07514 4.02062 3.07842 3.90366 3.17539 3.80341L3.80375 3.17505C3.90071 3.07809 4.01439 3.06824 4.05109 3.10494L5.23409 4.28793L5.68163 4.01075C6.2348 3.6554 6.84706 3.40208 7.48943 3.26215L8.02081 3.13534V1.4645C8.02081 1.42094 8.10436 1.34098 8.24459 1.34098H9.13344C9.27367 1.34098 9.35721 1.42124 9.35721 1.4645V3.13534L9.88532 3.24902L9.88562 3.24872C10.5298 3.39253 11.1432 3.65062 11.6967 4.01075L12.1478 4.30136L13.3308 3.11836C13.3609 3.08823 13.4779 3.09151 13.5749 3.18848L14.2032 3.82012C14.3002 3.91708 14.3035 4.03404 14.2733 4.06746L13.0904 5.25046L13.3675 5.68159C13.7223 6.23506 13.9759 6.84732 14.1161 7.48938L14.2429 8.02077H15.9138C15.9573 8.02077 16.0373 8.10432 16.0373 8.24454V9.13339C16.0373 9.27362 15.957 9.35717 15.9138 9.35717H14.2429L14.1293 9.88169L14.1296 9.88199C13.9852 10.5274 13.7271 11.1417 13.3675 11.6967L13.0769 12.1478L14.2599 13.3308C14.2901 13.3609 14.2868 13.4812 14.1898 13.5781L13.5746 14.2029C13.4743 14.2999 13.3574 14.3032 13.3272 14.273L12.1442 13.0867L11.6967 13.3675C11.1435 13.7228 10.5313 13.9762 9.8889 14.1161L9.35751 14.2429V15.9137C9.35751 15.9573 9.27396 16.0373 9.13374 16.0373L8.24458 16.0376C8.10435 16.0376 8.02081 15.9573 8.02081 15.914V14.2432L7.49628 14.1295C6.85062 13.9863 6.23599 13.7282 5.68161 13.3675L5.2272 13.0769L4.04749 14.2599C4.01736 14.29 3.9004 14.2933 3.80015 14.1898L3.17537 13.5745C3.07841 13.4776 3.07512 13.3573 3.10526 13.3272L4.28825 12.1442L4.01077 11.6967C3.65572 11.1432 3.40241 10.5312 3.26217 9.88886L3.13537 9.35747H1.46452C1.42096 9.35747 1.341 9.27393 1.341 9.1337L1.33741 8.24455Z" fill="white"/>
<path d="M8.68902 12.2347C9.62943 12.2347 10.5311 11.8612 11.1962 11.1964C11.8609 10.5314 12.2345 9.62968 12.2345 8.68927C12.2345 7.74886 11.8609 6.84718 11.1962 6.18213C10.5311 5.51737 9.62943 5.1438 8.68902 5.1438C7.74862 5.1438 6.84693 5.51735 6.18188 6.18213C5.51713 6.84718 5.14355 7.74886 5.14355 8.68927C5.14355 9.62968 5.5171 10.5314 6.18188 11.1964C6.84693 11.8612 7.74862 12.2347 8.68902 12.2347ZM8.68902 6.48376C9.27501 6.48376 9.83711 6.71648 10.2513 7.13121C10.6657 7.54564 10.8981 8.10775 10.8978 8.69374C10.8975 9.27973 10.6645 9.84153 10.2498 10.2557C9.83503 10.6698 9.27291 10.9019 8.68692 10.9013C8.10063 10.9007 7.53913 10.6674 7.1253 10.2524C6.71117 9.83765 6.47934 9.27524 6.48024 8.68924C6.48024 8.10355 6.71296 7.54176 7.12709 7.12732C7.54152 6.71318 8.10332 6.48046 8.68902 6.48046L8.68902 6.48376Z" fill="white"/>
<path d="M33.7526 20.9498C33.7505 20.6992 33.6088 20.471 33.385 20.3582L21.6895 14.4434C21.4995 14.347 21.2748 14.347 21.0847 14.4434L9.38921 20.3582C9.16603 20.4728 9.0255 20.7022 9.0255 20.9531C9.0255 21.2041 9.16603 21.4335 9.38921 21.5481L10.7826 22.2767L9.35904 23.0417C9.14123 23.1578 9.00488 23.3845 9.00488 23.6316C9.00488 23.8783 9.14124 24.1051 9.35904 24.2215L10.7524 24.9501L9.35904 25.7151C9.14123 25.8312 9.00488 26.0579 9.00488 26.305C9.00488 26.5517 9.14124 26.7785 9.35904 26.8948L21.0714 33.0101C21.265 33.1109 21.4959 33.1109 21.6896 33.0101L33.369 26.8948C33.5839 26.7853 33.7232 26.5687 33.7336 26.328C33.7441 26.0872 33.6238 25.8592 33.4192 25.7318L32.0458 24.9331L33.3825 24.2281C33.5991 24.1171 33.7385 23.8975 33.7459 23.654C33.7537 23.4108 33.6284 23.1826 33.4192 23.0585L32.0459 22.2597L33.3825 21.5547C33.6117 21.4407 33.7558 21.2059 33.7534 20.9499L33.7526 20.9498ZM21.388 15.7869L31.6239 20.9633L21.4048 26.31L11.1521 20.9633L21.388 15.7869ZM21.388 31.6597L11.1094 26.2862L12.1987 25.6912L21.0979 30.3329C21.2915 30.4341 21.5222 30.4341 21.7161 30.3329L30.6451 25.6545L31.701 26.2662L21.388 31.6597ZM21.388 28.9864L11.1094 23.6128L12.1987 23.0179L21.0979 27.6596C21.2915 27.7607 21.5222 27.7607 21.7161 27.6596L30.6451 22.9812L31.701 23.5928L21.388 28.9864Z" fill="white"/>
<path d="M38.0959 29.7413C38.0959 29.2096 37.8846 28.6994 37.5087 28.3235C37.1328 27.9476 36.6225 27.7363 36.0909 27.7363C35.5593 27.7363 35.049 27.9476 34.6731 28.3235C34.2972 28.6995 34.0859 29.2097 34.0859 29.7413C34.0859 30.2729 34.2972 30.7832 34.6731 31.1591C35.0491 31.535 35.5593 31.7463 36.0909 31.7463C36.6225 31.7463 37.1328 31.535 37.5087 31.1591C37.8846 30.7831 38.0959 30.2729 38.0959 29.7413ZM35.4225 29.7413C35.4225 29.471 35.5854 29.2272 35.8352 29.124C36.0849 29.0204 36.3722 29.0774 36.5635 29.2687C36.7547 29.4599 36.8117 29.7473 36.7082 29.997C36.6049 30.2467 36.3612 30.4096 36.0909 30.4096C35.7218 30.4096 35.4225 30.1104 35.4225 29.7413Z" fill="white"/>
<path d="M40.1003 32.4147C40.1003 32.7837 39.8011 33.083 39.432 33.083C39.0629 33.083 38.7637 32.7837 38.7637 32.4147C38.7637 32.0456 39.0629 31.7463 39.432 31.7463C39.8011 31.7463 40.1003 32.0456 40.1003 32.4147Z" fill="white"/>
<path d="M6.68466 27.7371C6.15298 27.7371 5.64274 27.9483 5.26687 28.3242C4.891 28.7002 4.67969 29.2104 4.67969 29.742C4.67969 30.2736 4.89093 30.784 5.26687 31.1598C5.64281 31.5357 6.15305 31.747 6.68466 31.747C7.21627 31.747 7.72658 31.5358 8.10245 31.1598C8.47832 30.7839 8.68963 30.2736 8.68963 29.742C8.68963 29.2104 8.47839 28.7001 8.10245 28.3242C7.72651 27.9484 7.21627 27.7371 6.68466 27.7371ZM6.68466 30.4104C6.41434 30.4104 6.17057 30.2475 6.06735 29.9978C5.96381 29.748 6.0208 29.4607 6.21205 29.2695C6.4033 29.0782 6.69062 29.0212 6.94036 29.1248C7.19009 29.228 7.353 29.4718 7.353 29.7421C7.353 29.9193 7.28258 30.0894 7.15727 30.2147C7.03196 30.34 6.86189 30.4104 6.68466 30.4104Z" fill="white"/>
<path d="M4.0105 32.4147C4.0105 32.7837 3.71124 33.083 3.34216 33.083C2.97309 33.083 2.67383 32.7837 2.67383 32.4147C2.67383 32.0456 2.97309 31.7463 3.34216 31.7463C3.71124 31.7463 4.0105 32.0456 4.0105 32.4147Z" fill="white"/>
<path d="M24.0604 9.35742H18.7137C18.6788 9.83152 18.5299 10.2901 18.2793 10.6941H24.505C24.2508 10.291 24.0983 9.83244 24.0604 9.35742H24.0604Z" fill="white"/>
<path d="M41.4913 15.4626L41.4379 15.516V34.0858C41.4379 34.263 41.3675 34.4331 41.2422 34.5584C41.1169 34.6837 40.9468 34.7541 40.7696 34.7541H2.00602C1.63694 34.7541 1.33768 34.4549 1.33768 34.0858V15.516L1.28428 15.4626V15.4623C0.826583 15.0126 0.531796 14.4231 0.446448 13.7872C0.361115 13.1511 0.490009 12.5049 0.81314 11.9502C0.526114 11.8833 0.251912 11.7706 0.000976562 11.616V34.0859C0.000976562 34.6176 0.212217 35.1278 0.588158 35.5037C0.9641 35.8795 1.47434 36.0908 2.00595 36.0908H18.7144V37.4275H15.7069C15.3378 37.4275 15.0385 37.7268 15.0385 38.0959C15.0385 38.4649 15.3378 38.7642 15.7069 38.7642H27.0686C27.4377 38.7642 27.7369 38.4649 27.7369 38.0959C27.7369 37.7268 27.4377 37.4275 27.0686 37.4275H24.0611V36.0908H40.7695C41.3012 36.0908 41.8114 35.8796 42.1873 35.5037C42.5632 35.1277 42.7745 34.6175 42.7745 34.0859V11.603C42.5235 11.7576 42.2493 11.8707 41.9623 11.9372C42.2887 12.4933 42.4197 13.1423 42.3341 13.7811C42.2487 14.4202 41.9522 15.0122 41.4912 15.4627L41.4913 15.4626ZM22.7244 37.4276H20.0511V36.0909H22.7244V37.4276Z" fill="white"/>
</svg>
