<svg width="47" height="43" viewBox="0 0 47 43" fill="none" xmlns="http://www.w3.org/2000/svg">
<path fill-rule="evenodd" clip-rule="evenodd" d="M10.4351 0C11.0755 0 11.5947 0.519187 11.5947 1.1596V6.95689C11.5947 7.59728 11.0755 8.11618 10.4351 8.11618H6.377V9.85538H8.1162C8.4364 9.85538 8.69614 10.1148 8.69614 10.435V11.015H2.89885V10.435C2.89885 10.1148 3.15829 9.85538 3.47848 9.85538H5.21769V8.11618H1.1596C0.51921 8.11618 0 7.59729 0 6.95689V1.1596C0 0.51921 0.519187 0 1.1596 0H10.4351ZM1.15954 1.1596H10.4351V6.95689H1.15954V1.1596Z" fill="white"/>
<path fill-rule="evenodd" clip-rule="evenodd" d="M35.9442 33.0444C30.8211 33.0444 26.6686 28.8914 26.6686 23.7688C26.6686 18.646 30.8212 14.4933 35.9442 14.4933C41.0669 14.4933 45.2197 18.6462 45.2197 23.7688C45.2197 28.8916 41.0671 33.0444 35.9442 33.0444ZM35.9442 34.204C30.181 34.204 25.5088 29.5319 25.5088 23.7686C25.5088 18.0053 30.1809 13.334 35.9442 13.334C41.7071 13.334 46.3788 18.0058 46.3788 23.7686C46.3788 29.5314 41.7067 34.204 35.9442 34.204Z" fill="white"/>
<path fill-rule="evenodd" clip-rule="evenodd" d="M5.79729 30.1457C3.23602 30.1457 1.1596 28.0695 1.1596 25.508C1.1596 22.9467 3.23602 20.8703 5.79729 20.8703C8.35887 20.8703 10.435 22.9467 10.435 25.508C10.435 28.0696 8.35879 30.1457 5.79729 30.1457ZM5.79729 31.3053C2.59567 31.3053 0 28.7096 0 25.508C0 22.3064 2.59567 19.7107 5.79729 19.7107C8.99892 19.7107 11.5946 22.3064 11.5946 25.508C11.5946 28.7096 8.99892 31.3053 5.79729 31.3053Z" fill="white"/>
<path fill-rule="evenodd" clip-rule="evenodd" d="M36.5228 5.79724C35.5623 5.79724 34.7836 5.01861 34.7836 4.05804C34.7836 3.09747 35.5623 2.31884 36.5228 2.31884C37.4834 2.31884 38.262 3.09747 38.262 4.05804C38.262 5.01861 37.4834 5.79724 36.5228 5.79724ZM36.5228 6.95684C34.9219 6.95684 33.624 5.65904 33.624 4.05804C33.624 2.45711 34.9218 1.15955 36.5228 1.15955C38.1235 1.15955 39.4213 2.45711 39.4213 4.05804C39.4213 5.65897 38.1235 6.95684 36.5228 6.95684Z" fill="white"/>
<path fill-rule="evenodd" clip-rule="evenodd" d="M14.4945 13.3333C13.5339 13.3333 12.7553 12.5547 12.7553 11.5941C12.7553 10.6335 13.5339 9.85491 14.4945 9.85491C15.4548 9.85491 16.2334 10.6335 16.2334 11.5941C16.2334 12.5547 15.4548 13.3333 14.4945 13.3333ZM14.4945 14.4926C12.8936 14.4926 11.5957 13.195 11.5957 11.5941C11.5957 9.99318 12.8935 8.69531 14.4945 8.69531C16.0952 8.69531 17.393 9.99311 17.393 11.5941C17.393 13.195 16.0952 14.4926 14.4945 14.4926Z" fill="white"/>
<path fill-rule="evenodd" clip-rule="evenodd" d="M22.6097 41.74C21.6492 41.74 20.8705 40.9614 20.8705 40.0011C20.8705 39.0405 21.6492 38.2619 22.6097 38.2619C23.5703 38.2619 24.3489 39.0405 24.3489 40.0011C24.3489 40.9614 23.5703 41.74 22.6097 41.74ZM22.6097 42.8996C21.0088 42.8996 19.7109 41.6018 19.7109 40.0011C19.7109 38.4002 21.0087 37.1023 22.6097 37.1023C24.2104 37.1023 25.5082 38.4001 25.5082 40.0011C25.5082 41.6018 24.2104 42.8996 22.6097 42.8996Z" fill="white"/>
<path d="M6.37706 12.1742H5.21777V20.2907H6.37706V12.1742Z" fill="white"/>
<path d="M13.9141 13.9991L12.9645 13.3339L7.84082 20.6468L8.79059 21.312L13.9141 13.9991Z" fill="white"/>
<path d="M16.8827 12.7542L16.3027 13.7581L27.2483 20.0772L27.8279 19.073L16.8827 12.7542Z" fill="white"/>
<path d="M10.752 25.727L10.8567 26.8818L26.0876 25.5032L25.9832 24.3484L10.752 25.727Z" fill="white"/>
<path d="M16.5557 10.498L16.9761 11.5784L34.5221 4.75254L34.1017 3.672L16.5557 10.498Z" fill="white"/>
<path d="M35.3398 13.9524L36.4958 14.0452L37.103 6.46947L35.9473 6.37671L35.3398 13.9524Z" fill="white"/>
<path d="M23.7539 38.0268L24.6729 38.7336L30.0396 31.7578L29.1206 31.051L23.7539 38.0268Z" fill="white"/>
<path d="M20.439 39.5919L21.1677 38.69L9.35336 29.1494L8.625 30.0513L20.439 39.5919Z" fill="white"/>
<path d="M35.944 24.989C36.6325 24.989 37.3214 25.2736 37.767 25.8026C38.1722 26.2907 38.9011 25.6398 38.4962 25.1518C37.8478 24.4192 36.9162 24.0125 35.944 24.0125C34.9715 24.0125 34.0399 24.4192 33.3915 25.1518C32.9866 25.6398 33.7158 26.2907 34.1207 25.8026C34.5666 25.2736 35.2552 24.989 35.944 24.989H35.944ZM35.944 28.4063C36.4706 28.4063 36.9162 27.9587 36.9162 27.4299C36.9162 26.9008 36.4706 26.4535 35.944 26.4535C35.4173 26.4535 34.9714 26.9008 34.9714 27.4299C34.9714 27.9587 35.4173 28.4063 35.944 28.4063ZM35.944 22.548C37.2403 22.548 38.4151 22.9954 39.347 23.9311C39.7519 24.3381 40.5218 23.7276 40.0356 23.2396C38.9418 22.141 37.4833 21.5716 35.944 21.5716C34.4043 21.5716 32.9458 22.1411 31.8521 23.2396C31.3658 23.7276 32.1358 24.3381 32.5407 23.9311C33.4725 22.9954 34.6474 22.548 35.944 22.548H35.944ZM35.944 20.1071C37.8073 20.1071 39.5495 20.7986 40.8863 22.0596C41.3726 22.5073 42.0612 21.8157 41.5752 21.3681C39.9952 19.9036 38.0504 19.1306 35.944 19.1306C33.8373 19.1306 31.8925 19.9036 30.3125 21.3681C29.8265 21.8157 30.515 22.5073 31.0013 22.0596C32.3383 20.7986 34.0802 20.1071 35.944 20.1071H35.944Z" fill="white"/>
</svg>
