<svg width="47" height="47" viewBox="0 0 47 47" fill="none" xmlns="http://www.w3.org/2000/svg">
<path d="M23.782 34.2644C18.002 34.2644 13.2998 29.562 13.2998 23.7822C13.2998 18.0024 18.0021 13.3 23.782 13.3C29.5618 13.3 34.2641 18.0024 34.2641 23.7822C34.2641 29.562 29.5618 34.2644 23.782 34.2644ZM23.782 14.6713C18.7584 14.6713 14.6711 18.7586 14.6711 23.7822C14.6711 28.8058 18.7584 32.8931 23.782 32.8931C28.8056 32.8931 32.8928 28.8058 32.8928 23.7822C32.8928 18.7586 28.8056 14.6713 23.782 14.6713V14.6713Z" fill="white"/>
<path d="M23.7824 28.5498C21.1534 28.5498 19.0146 26.411 19.0146 23.7821C19.0146 21.1532 21.1534 19.0144 23.7824 19.0144C26.4113 19.0144 28.5501 21.1532 28.5501 23.7821C28.5501 26.411 26.4113 28.5498 23.7824 28.5498ZM23.7824 20.3859C21.9099 20.3859 20.3861 21.9096 20.3861 23.7821C20.3861 25.6546 21.9099 27.1784 23.7824 27.1784C25.6549 27.1784 27.1786 25.6546 27.1786 23.7821C27.1786 21.9096 25.6549 20.3859 23.7824 20.3859V20.3859Z" fill="white"/>
<path d="M23.782 11.7326C22.2335 11.7326 20.9736 10.4728 20.9736 8.92423C20.9736 7.37604 22.2335 6.11609 23.782 6.11609C25.3306 6.11609 26.5905 7.37595 26.5905 8.9245C26.5905 10.4727 25.3306 11.7326 23.782 11.7326ZM23.782 7.48756C22.9899 7.48756 22.3451 8.13203 22.3451 8.9245C22.3451 9.71662 22.9896 10.3614 23.782 10.3614C24.5745 10.3614 25.219 9.71697 25.219 8.9245C25.219 8.13203 24.5745 7.48756 23.782 7.48756Z" fill="white"/>
<path d="M23.782 42.2655C22.2335 42.2655 20.9736 41.0056 20.9736 39.4571C20.9736 37.9085 22.2335 36.6487 23.782 36.6487C25.3306 36.6487 26.5905 37.9085 26.5905 39.4571C26.5905 41.0056 25.3306 42.2655 23.782 42.2655ZM23.782 38.0202C22.9899 38.0202 22.3451 38.6646 22.3451 39.4571C22.3451 40.2496 22.9896 40.894 23.782 40.894C24.5745 40.894 25.219 40.2496 25.219 39.4571C25.219 38.6646 24.5745 38.0202 23.782 38.0202Z" fill="white"/>
<path d="M34.577 16.2039C33.0284 16.2039 31.7686 14.944 31.7686 13.3954C31.7686 11.8469 33.0284 10.587 34.577 10.587C36.1255 10.587 37.3854 11.8469 37.3854 13.3954C37.3854 14.944 36.1255 16.2039 34.577 16.2039ZM34.577 11.9588C33.7845 11.9588 33.14 12.6032 33.14 13.3957C33.14 14.1878 33.7845 14.8327 34.577 14.8327C35.3694 14.8327 36.0139 14.1882 36.0139 13.3957C36.0139 12.6032 35.3694 11.9588 34.577 11.9588Z" fill="white"/>
<path d="M12.9871 37.7933C11.4386 37.7933 10.1787 36.5335 10.1787 34.9849C10.1787 33.4364 11.4386 32.1765 12.9871 32.1765C14.5357 32.1765 15.7955 33.4364 15.7955 34.9849C15.7952 36.5335 14.5353 37.7933 12.9871 37.7933ZM12.9871 33.548C12.195 33.548 11.5502 34.1925 11.5502 34.9849C11.5502 35.7774 12.1946 36.4219 12.9871 36.4219C13.7792 36.4219 14.4241 35.7774 14.4241 34.9849C14.4237 34.1925 13.7792 33.548 12.9871 33.548Z" fill="white"/>
<path d="M39.0486 26.9984C37.5001 26.9984 36.2402 25.7385 36.2402 24.19C36.2402 22.6415 37.5001 21.3816 39.0486 21.3816C40.5972 21.3816 41.8571 22.6415 41.8571 24.19C41.8571 25.7385 40.5972 26.9984 39.0486 26.9984ZM39.0486 22.7531C38.2562 22.7531 37.6117 23.3975 37.6117 24.19C37.6117 24.9825 38.2562 25.6269 39.0486 25.6269C39.8411 25.6269 40.4856 24.9825 40.4856 24.19C40.4856 23.3975 39.8411 22.7531 39.0486 22.7531Z" fill="white"/>
<path d="M8.51544 26.9984C6.9669 26.9984 5.70703 25.7385 5.70703 24.19C5.70703 22.6415 6.9669 21.3816 8.51544 21.3816C10.064 21.3816 11.3239 22.6415 11.3239 24.19C11.3239 25.7385 10.064 26.9984 8.51544 26.9984ZM8.51544 22.7531C7.72332 22.7531 7.0785 23.3975 7.0785 24.19C7.0785 24.9825 7.72297 25.6269 8.51544 25.6269C9.30756 25.6269 9.95238 24.9825 9.95238 24.19C9.95238 23.3975 9.30791 22.7531 8.51544 22.7531Z" fill="white"/>
<path d="M34.577 37.7933C33.0284 37.7933 31.7686 36.5335 31.7686 34.9849C31.7686 33.4364 33.0284 32.1765 34.577 32.1765C36.1255 32.1765 37.3854 33.4364 37.3854 34.9849C37.3854 36.5335 36.1255 37.7933 34.577 37.7933ZM34.577 33.548C33.7845 33.548 33.14 34.1925 33.14 34.9849C33.14 35.7774 33.7845 36.4219 34.577 36.4219C35.3694 36.4219 36.0139 35.7774 36.0139 34.9849C36.0139 34.1925 35.3694 33.548 34.577 33.548Z" fill="white"/>
<path d="M12.9871 16.2039C11.4386 16.2039 10.1787 14.944 10.1787 13.3954C10.1787 11.8469 11.4386 10.587 12.9871 10.587C14.5357 10.587 15.7955 11.8469 15.7955 13.3954C15.7952 14.944 14.5353 16.2039 12.9871 16.2039ZM12.9871 11.9588C12.195 11.9588 11.5502 12.6032 11.5502 13.3957C11.5502 14.1878 12.1946 14.8327 12.9871 14.8327C13.7792 14.8327 14.4241 14.1882 14.4241 13.3957C14.4237 12.6032 13.7792 11.9588 12.9871 11.9588Z" fill="white"/>
<path d="M27.7007 47H19.8635C19.5322 47 19.2481 46.7631 19.1889 46.4371L18.2457 41.2491C17.2482 40.9331 16.2763 40.5301 15.3474 40.0476L11.011 43.0496C10.7384 43.2385 10.37 43.2049 10.1356 42.9709L4.59359 37.4292C4.35917 37.1948 4.32593 36.8263 4.51452 36.5538L7.51684 32.2174C7.03402 31.2882 6.63131 30.3162 6.31538 29.3188L1.12741 28.3755C0.801325 28.3164 0.564453 28.0323 0.564453 27.701V19.8637C0.564453 19.5324 0.801316 19.2483 1.12741 19.1892L6.31538 18.2459C6.63131 17.2488 7.03402 16.2769 7.51684 15.3476L4.51452 11.0112C4.32593 10.7387 4.35917 10.3703 4.59359 10.1359L10.1353 4.59383C10.3697 4.35942 10.7381 4.32653 11.0106 4.51476L15.347 7.51673C16.2763 7.0339 17.2483 6.63119 18.2453 6.31526L19.1886 1.12729C19.2481 0.80156 19.5322 0.564697 19.8635 0.564697H27.7007C28.032 0.564697 28.3161 0.80156 28.3753 1.12765L29.3185 6.31562C30.316 6.63155 31.2876 7.03426 32.2172 7.51709L36.5536 4.51476C36.8261 4.32618 37.1945 4.35941 37.4289 4.59383L42.9706 10.1359C43.205 10.3703 43.2379 10.7387 43.0493 11.0112L40.0474 15.3476C40.5302 16.2769 40.9329 17.2485 41.2488 18.2459L46.4368 19.1892C46.7629 19.2483 46.9998 19.5324 46.9998 19.8637V27.701C46.9998 28.0323 46.7629 28.3164 46.4368 28.3755L41.2488 29.3188C40.9329 30.3163 40.5298 31.2882 40.0474 32.2174L43.0493 36.5538C43.2379 36.8264 43.2047 37.1948 42.9706 37.4292L37.4289 42.9709C37.1945 43.2049 36.8261 43.2382 36.5536 43.0496L32.2172 40.0476C31.2879 40.5304 30.3163 40.9331 29.3185 41.2491L28.3753 46.4371C28.3161 46.7631 28.032 47 27.7007 47V47ZM20.4359 45.6285H27.1284L28.044 40.5921C28.0906 40.3364 28.2777 40.1289 28.5272 40.0565C29.7084 39.7125 30.8542 39.2377 31.9329 38.6447C32.161 38.5198 32.4398 38.5338 32.6536 38.6818L36.8637 41.5962L41.5961 36.8638L38.6816 32.6537C38.5336 32.44 38.5193 32.1611 38.6445 31.933C39.2376 30.854 39.7127 29.7081 40.0563 28.5273C40.1287 28.2779 40.3362 28.0907 40.592 28.0442L45.6284 27.1285V20.4361L40.592 19.5204C40.3362 19.4739 40.1287 19.2867 40.0563 19.0372C39.7124 17.8564 39.2376 16.7105 38.6445 15.6316C38.5193 15.4038 38.5336 15.1246 38.6816 14.9108L41.5961 10.7008L36.8637 5.96835L32.6536 8.88317C32.4398 9.03116 32.161 9.04551 31.9329 8.92026C30.8535 8.32722 29.7076 7.85207 28.5272 7.50848C28.2777 7.43606 28.0906 7.22823 28.044 6.97282L27.1284 1.93604H20.4359L19.5203 6.97282C19.4737 7.22858 19.2866 7.43606 19.0371 7.50848C17.8562 7.85206 16.7104 8.32719 15.6314 8.92026C15.4037 9.04551 15.1248 9.03117 14.9107 8.88317L10.7006 5.96871L5.96821 10.7011L8.88303 14.9112C9.03102 15.125 9.04537 15.4038 8.92011 15.6319C8.32707 16.711 7.85192 17.8572 7.50834 19.0376C7.43592 19.2871 7.22809 19.4742 6.97268 19.5208L1.9359 20.4361V27.1285L6.97232 28.0442C7.22808 28.0907 7.43556 28.2779 7.50798 28.5273C7.85156 29.7082 8.32669 30.8541 8.91976 31.933C9.04501 32.1608 9.03067 32.44 8.88267 32.6537L5.96785 36.8638L10.7003 41.5962L14.9103 38.6818C15.1241 38.5334 15.403 38.5194 15.6311 38.6447C16.7101 39.2377 17.856 39.7129 19.0367 40.0565C19.2862 40.1289 19.4734 40.3364 19.5199 40.5921L20.4359 45.6285Z" fill="white"/>
</svg>
