<svg width="44" height="51" viewBox="0 0 44 51" fill="none" xmlns="http://www.w3.org/2000/svg">
<path d="M22.0996 6.80005H23.7996V8.50005H22.0996V6.80005Z" fill="white"/>
<path d="M18.7002 6.80005H20.4002V8.50005H18.7002V6.80005Z" fill="white"/>
<path d="M20.4004 42.5H22.1004V44.2H20.4004V42.5Z" fill="white"/>
<path d="M3.40039 17H5.10039V18.7H3.40039V17Z" fill="white"/>
<path d="M6.7998 17H8.4998V18.7H6.7998V17Z" fill="white"/>
<path d="M10.2002 17H11.9002V18.7H10.2002V17Z" fill="white"/>
<path d="M13.5996 17H15.2996V18.7H13.5996V17Z" fill="white"/>
<path d="M17 17H18.7V18.7H17V17Z" fill="white"/>
<path d="M29.75 32.3H31.45V34H29.75V32.3Z" fill="white"/>
<path d="M33.1504 32.3H39.9504V34H33.1504V32.3Z" fill="white"/>
<path d="M29.75 35.7H39.95V37.4H29.75V35.7Z" fill="white"/>
<path d="M29.75 39.1001H39.95V40.8001H29.75V39.1001Z" fill="white"/>
<path d="M6.8 4.25002V13.6H0.85C0.380606 13.6 0 13.9806 0 14.45V21.25C0 21.4754 0.0895541 21.6917 0.248929 21.8511C0.408303 22.0105 0.624599 22.1 0.85 22.1H6.8V46.75C6.8 46.9754 6.88955 47.1917 7.04893 47.3511C7.2083 47.5105 7.4246 47.6 7.65 47.6H34.85C35.0754 47.6 35.2917 47.5105 35.4511 47.3511C35.6104 47.1917 35.7 46.9754 35.7 46.75V44.2H42.5C42.7254 44.2 42.9417 44.1105 43.1011 43.9511C43.2604 43.7917 43.35 43.5754 43.35 43.35V29.75C43.35 29.5246 43.2604 29.3083 43.1011 29.149C42.9417 28.9896 42.7254 28.9 42.5 28.9H35.7V4.25002C35.7 4.02462 35.6104 3.80833 35.4511 3.64895C35.2917 3.48958 35.0754 3.40002 34.85 3.40002H7.65C7.18061 3.40002 6.8 3.78063 6.8 4.25002ZM1.7 15.3H20.4V20.4H1.7V15.3ZM34 45.9H8.5V40.8H26.35V43.35C26.35 43.5754 26.4396 43.7917 26.5989 43.9511C26.7583 44.1105 26.9746 44.2 27.2 44.2H34V45.9ZM41.65 42.5H28.05V30.6H41.65V42.5ZM27.2 28.9C26.7306 28.9 26.35 29.2806 26.35 29.75V39.1H8.5V22.1H21.25C21.4754 22.1 21.6917 22.0105 21.8511 21.8511C22.0104 21.6917 22.1 21.4754 22.1 21.25V14.45C22.1 14.2246 22.0104 14.0083 21.8511 13.849C21.6917 13.6896 21.4754 13.6 21.25 13.6H8.5V11.9H34V28.9H27.2ZM34 5.10002V10.2H8.5V5.10002H34Z" fill="white"/>
<path d="M21.25 24.6499H17.85C17.3806 24.6499 17 25.0305 17 25.4999V28.8999C17 29.1253 17.0896 29.3416 17.2489 29.501C17.4083 29.6603 17.6246 29.7499 17.85 29.7499H21.25C21.4754 29.7499 21.6917 29.6603 21.8511 29.501C22.0104 29.3416 22.1 29.1253 22.1 28.8999V25.4999C22.1 25.2745 22.0104 25.0582 21.8511 24.8988C21.6917 24.7395 21.4754 24.6499 21.25 24.6499ZM20.4 28.0499H18.7V26.3499H20.4V28.0499Z" fill="white"/>
<path d="M11.0502 29.7499H14.4502C14.6756 29.7499 14.8919 29.6603 15.0513 29.501C15.2106 29.3416 15.3002 29.1253 15.3002 28.8999V25.4999C15.3002 25.2745 15.2106 25.0582 15.0513 24.8988C14.8919 24.7395 14.6756 24.6499 14.4502 24.6499H11.0502C10.5808 24.6499 10.2002 25.0305 10.2002 25.4999V28.8999C10.2002 29.1253 10.2897 29.3416 10.4491 29.501C10.6085 29.6603 10.8248 29.7499 11.0502 29.7499ZM11.9002 26.3499H13.6002V28.0499H11.9002V26.3499Z" fill="white"/>
<path d="M30.4238 19.4267C31.073 18.7937 31.4422 17.9278 31.4498 17.0212C31.4574 16.1143 31.1022 15.2424 30.464 14.5987C29.8254 13.9547 28.9563 13.5928 28.0498 13.5928C27.1433 13.5928 26.2743 13.9548 25.6356 14.5987C24.9974 15.2423 24.6421 16.1143 24.6498 17.0212C24.6574 17.9278 25.0266 18.7937 25.6758 19.4267C24.5037 20.2164 23.8005 21.5369 23.7998 22.9501V26.3501C23.7998 26.5755 23.8894 26.7918 24.0487 26.9511C24.2081 27.1105 24.4244 27.2001 24.6498 27.2001H31.4498C31.6752 27.2001 31.8915 27.1105 32.0509 26.9511C32.2102 26.7918 32.2998 26.5755 32.2998 26.3501V22.9501C32.299 21.5369 31.5959 20.2164 30.4238 19.4267ZM26.3498 17.0001C26.3498 16.5493 26.5289 16.1167 26.8477 15.7979C27.1664 15.4792 27.599 15.3001 28.0498 15.3001C28.5006 15.3001 28.9332 15.4792 29.2519 15.7979C29.5707 16.1167 29.7498 16.5493 29.7498 17.0001C29.7498 17.4509 29.5707 17.8835 29.2519 18.2022C28.9332 18.5209 28.5006 18.7001 28.0498 18.7001C27.599 18.7001 27.1664 18.5209 26.8477 18.2022C26.5289 17.8835 26.3498 17.4509 26.3498 17.0001ZM30.5998 25.5001H25.4998V22.9501C25.4998 22.039 25.9859 21.1973 26.7748 20.7416C27.5637 20.2863 28.5359 20.2863 29.3248 20.7416C30.1137 21.1974 30.5998 22.039 30.5998 22.9501V25.5001Z" fill="white"/>
<path d="M10.2002 31.45H11.9002V33.15H10.2002V31.45Z" fill="white"/>
<path d="M13.5996 31.45H22.0996V33.15H13.5996V31.45Z" fill="white"/>
<path d="M10.2002 34.8501H22.1002V36.5501H10.2002V34.8501Z" fill="white"/>
<path d="M16.1504 49.3H33.1504V51H16.1504V49.3Z" fill="white"/>
<path d="M3.40039 24.6499H5.10039V38.2499H3.40039V24.6499Z" fill="white"/>
<path d="M39.1004 3.4C39.1004 2.4984 38.7422 1.63355 38.1047 0.995714C37.4668 0.358214 36.602 0 35.7004 0H24.6504V1.7H35.7004C36.1512 1.7 36.5838 1.87911 36.9025 2.19786C37.2213 2.5166 37.4004 2.9492 37.4004 3.4V17H39.1004V3.4Z" fill="white"/>
<path d="M37.4004 18.7H39.1004V20.4H37.4004V18.7Z" fill="white"/>
</svg>
