<svg width="43" height="46" viewBox="0 0 43 46" fill="none" xmlns="http://www.w3.org/2000/svg">
<path d="M25.4622 14.007L26.0895 13.2542C26.0664 12.8775 25.757 12.5781 25.3746 12.5781H6.52441C6.1275 12.5781 5.80566 12.9 5.80566 13.2969C5.80566 13.6938 6.1275 14.0156 6.52441 14.0156H25.3746C25.4044 14.0156 25.433 14.0105 25.4622 14.007V14.007Z" fill="white"/>
<path d="M23.6578 16.1722H6.52441C6.1275 16.1722 5.80566 16.4941 5.80566 16.891C5.80566 17.2879 6.1275 17.6097 6.52441 17.6097H22.4601L23.6578 16.1722Z" fill="white"/>
<path d="M21.6747 19.9646C21.6574 19.8992 21.6458 19.8321 21.6346 19.7654H6.52441C6.1275 19.7654 5.80566 20.0872 5.80566 20.4841C5.80566 20.881 6.1275 21.2029 6.52441 21.2029H17.7624C19.0173 21.0319 20.4352 20.6767 21.6744 19.9647L21.6747 19.9646Z" fill="white"/>
<path d="M11.9763 23.4845C11.9888 23.4422 12.0055 23.4011 12.0203 23.3594H6.52441C6.1275 23.3594 5.80566 23.6812 5.80566 24.0781C5.80566 24.475 6.1275 24.7969 6.52441 24.7969H11.5826L11.9763 23.4845Z" fill="white"/>
<path d="M10.9354 26.9526H6.52441C6.1275 26.9526 5.80566 27.2745 5.80566 27.6714C5.80566 28.0683 6.1275 28.3901 6.52441 28.3901H10.5038L10.9354 26.9526Z" fill="white"/>
<path d="M9.85662 30.5471H6.52441C6.1275 30.5471 5.80566 30.869 5.80566 31.2659C5.80566 31.6628 6.1275 31.9846 6.52441 31.9846H9.42537L9.85662 30.5471Z" fill="white"/>
<path d="M8.77825 34.1401H6.52441C6.1275 34.1401 5.80566 34.462 5.80566 34.8589C5.80566 35.2558 6.1275 35.5776 6.52441 35.5776H8.347L8.77825 34.1401Z" fill="white"/>
<path d="M26.0931 38.4524C26.0931 38.1206 25.8672 37.8443 25.5617 37.7612L20.9727 39.1711H25.3747C25.7713 39.1711 26.0931 38.8493 26.0931 38.4524L26.0931 38.4524Z" fill="white"/>
<path d="M5.8057 38.4526C5.8057 38.8496 6.12753 39.1714 6.52445 39.1714H7.26823L7.6998 37.7339H6.52441C6.1275 37.7339 5.80566 38.0557 5.80566 38.4526H5.8057Z" fill="white"/>
<path d="M7.29065 41.9865C7.14241 41.7875 7.0362 41.5658 6.97203 41.3284H6.52441C6.1275 41.3284 5.80566 41.6502 5.80566 42.0471C5.80566 42.444 6.1275 42.7659 6.52441 42.7659H8.90015C8.2459 42.7659 7.65905 42.4816 7.29064 41.9865H7.29065Z" fill="white"/>
<path d="M9.66567 42.6451C9.40673 42.7246 9.14906 42.7654 8.90039 42.7654H25.375C25.7719 42.7654 26.0937 42.4435 26.0937 42.0466C26.0937 41.6497 25.7719 41.3279 25.375 41.3279H13.953L9.66567 42.6451Z" fill="white"/>
<path d="M30.5846 28.2176C30.5435 28.2176 30.5027 28.2137 30.462 28.2112V43.125C30.462 43.9179 29.8058 44.5625 28.9991 44.5625H2.89986C2.0932 44.5625 1.43731 43.9179 1.43731 43.125V2.87502C1.43731 2.08215 2.09317 1.43752 2.89986 1.43752H19.4278L19.5748 1.55688V7.62198C19.5748 9.16824 20.8702 10.4219 22.4678 10.4219H28.4543C29.225 9.56129 30.5438 9.45738 31.4384 10.2027C31.6267 10.3597 31.7794 10.5429 31.8998 10.7412V9.44643L20.1205 0H2.90005C1.2986 0 0 1.28734 0 2.875V43.125C0 44.7127 1.2986 46 2.90005 46H29.0001C30.6019 46 31.9005 44.7127 31.9005 43.125L31.9002 27.77L31.8976 27.7716C31.5087 28.0704 31.046 28.2177 30.5852 28.2177L30.5846 28.2176ZM21.0116 2.7229L28.7312 8.98465H22.4671C21.6646 8.98465 21.0116 8.37371 21.0116 7.62223V2.7229Z" fill="white"/>
<path d="M42.2568 17.102C42.0142 16.787 41.5634 16.7286 41.2489 16.9692L30.6393 25.1119L24.735 19.3687L30.6095 12.3192C30.8637 12.014 30.8226 11.561 30.5174 11.3072C30.212 11.053 29.7592 11.0941 29.5054 11.399L23.2048 18.96C22.9645 19.2484 22.9866 19.6736 23.2559 19.9354L23.6634 20.3317C23.6419 20.3477 23.6188 20.3606 23.5982 20.3776C21.1449 22.4298 17.6897 22.7873 15.5822 22.7873C15.3688 22.7873 15.1693 22.7838 14.986 22.7777C14.97 22.7774 14.954 22.777 14.9379 22.777C14.2503 22.777 13.5492 23.2442 13.3535 23.8975L8.39056 40.4329C8.22691 40.9777 8.44928 41.3275 8.89978 41.3275C9.0031 41.3275 9.11796 41.3092 9.24311 41.2707L25.7103 36.2122C26.3816 36.0056 26.8798 35.274 26.8645 34.5761C26.7592 29.6844 28.3382 27.2435 29.4282 26.1474C29.4645 26.1108 29.494 26.072 29.5258 26.0338L30.0831 26.5761C30.2218 26.7109 30.4027 26.7795 30.5843 26.7795C30.738 26.7795 30.8921 26.7304 31.022 26.631L42.1244 18.1103C42.4389 17.8684 42.4982 17.4172 42.2566 17.1024L42.2568 17.102ZM25.4274 34.6075C25.4277 34.6765 25.3423 34.8119 25.2881 34.8382L11.7732 38.99L20.1526 30.9903C20.2745 31.0163 20.3999 31.0314 20.5299 31.0314C21.5195 31.0314 22.3229 30.2356 22.3229 29.256C22.3229 28.2761 21.5195 27.481 20.5299 27.481C19.5393 27.481 18.7369 28.2761 18.7369 29.256C18.7369 29.574 18.828 29.8679 18.9763 30.1266L10.5788 38.1441L14.7241 24.3269C14.7488 24.2845 14.8589 24.2146 14.9398 24.2146C15.1374 24.221 15.3527 24.2249 15.5828 24.2249C18.1543 24.2249 21.7823 23.7525 24.492 21.5045L28.2812 25.2664C26.8883 26.7344 25.3179 29.5259 25.4277 34.6077L25.4274 34.6075Z" fill="white"/>
<path d="M28.63 18.0943C28.3479 18.3734 28.3457 18.8284 28.6252 19.1105C28.7654 19.2523 28.9505 19.3235 29.1357 19.3235C29.3186 19.3235 29.5015 19.2546 29.6414 19.1153L32.5099 16.275C32.792 15.9958 32.7942 15.5408 32.5148 15.2588C32.2362 14.9774 31.7806 14.9742 31.4986 15.254L28.63 18.0943Z" fill="white"/>
<path d="M30.4192 21.2412C30.5594 21.383 30.7445 21.4543 30.9297 21.4543C31.1126 21.4543 31.2954 21.3853 31.4353 21.246L34.3039 18.4057C34.586 18.1269 34.5882 17.6715 34.3087 17.3895C34.0302 17.1081 33.5746 17.1049 33.2922 17.3847L30.4236 20.225C30.1419 20.5039 30.1397 20.9592 30.4191 21.2412H30.4192Z" fill="white"/>
</svg>
