<svg width="528" height="92" viewBox="0 0 528 92" fill="none" xmlns="http://www.w3.org/2000/svg">
<path d="M442.438 0L400.57 41.7389L358.676 0L316.808 41.7389L274.94 0L238.013 36.8149L201.06 0L159.192 41.7389L117.298 0L75.4304 41.7389L33.5624 0L-8 41.4327L-3.36498 46.076L33.5624 9.26112L75.4304 51L117.298 9.26112L159.192 51L201.06 9.26112L238.013 46.1016L274.94 9.26112L316.808 51L358.676 9.26112L400.57 51L442.438 9.26112L479.39 46.076L484 41.4327L442.438 0Z" fill="#F36C25"/>
<path d="M193.174 42L152.048 82.9205L110.897 42L69.7715 82.9205L28.6456 42L-3.97496 74.4662L-4 83.5708L28.6456 51.0795L69.7715 92L110.897 51.0795L152.048 92L193.174 51.0795L229.472 87.1726L234 82.5953L193.174 42Z" fill="#FBA928"/>
<ellipse cx="520" cy="25.5" rx="8" ry="8.5" fill="#FBA928"/>
<ellipse cx="269.5" cy="75" rx="8.5" ry="8" fill="#F36C25"/>
</svg>
